<?xml version="1.0" encoding="UTF-8" standalone="no"?>
<!-- Created with Inkscape (http://www.inkscape.org/) -->

<svg
   width="210mm"
   height="297mm"
   viewBox="0 0 210 297"
   version="1.1"
   id="svg1"
   inkscape:version="1.4 (86a8ad7, 2024-10-11)"
   sodipodi:docname="logo10.svg"
   xmlns:inkscape="http://www.inkscape.org/namespaces/inkscape"
   xmlns:sodipodi="http://sodipodi.sourceforge.net/DTD/sodipodi-0.dtd"
   xmlns:xlink="http://www.w3.org/1999/xlink"
   xmlns="http://www.w3.org/2000/svg"
   xmlns:svg="http://www.w3.org/2000/svg">
  <sodipodi:namedview
     id="namedview1"
     pagecolor="#ffffff"
     bordercolor="#000000"
     borderopacity="0.25"
     inkscape:showpageshadow="2"
     inkscape:pageopacity="0.0"
     inkscape:pagecheckerboard="true"
     inkscape:deskcolor="#d1d1d1"
     inkscape:document-units="px"
     showborder="false"
     inkscape:zoom="2"
     inkscape:cx="279.75"
     inkscape:cy="467"
     inkscape:window-width="3840"
     inkscape:window-height="2054"
     inkscape:window-x="2869"
     inkscape:window-y="-11"
     inkscape:window-maximized="1"
     inkscape:current-layer="layer1"
     showguides="true">
    <sodipodi:guide
       position="16.201595,129.71305"
       orientation="0,793.70079"
       id="guide1"
       inkscape:locked="false" />
    <sodipodi:guide
       position="210,297"
       orientation="1122.5197,0"
       id="guide2"
       inkscape:locked="false" />
    <sodipodi:guide
       position="210,0"
       orientation="0,-793.70079"
       id="guide3"
       inkscape:locked="false" />
    <sodipodi:guide
       position="2.720346,116.36902"
       orientation="-1122.5197,0"
       id="guide4"
       inkscape:locked="false" />
    <sodipodi:guide
       position="28.521257,156.04323"
       orientation="0,-1"
       id="guide13"
       inkscape:locked="false" />
    <sodipodi:guide
       position="11.041155,132.73615"
       orientation="1,0"
       id="guide15"
       inkscape:locked="false" />
  </sodipodi:namedview>
  <defs
     id="defs1">
    <inkscape:path-effect
       effect="powerstroke"
       id="path-effect150"
       is_visible="true"
       lpeversion="1.3"
       scale_width="1"
       interpolator_type="CubicBezierJohan"
       interpolator_beta="0.2"
       start_linecap_type="zerowidth"
       end_linecap_type="zerowidth"
       offset_points="1,3.4443867"
       linejoin_type="extrp_arc"
       miter_limit="4"
       not_jump="false"
       sort_points="true"
       message="" />
    <inkscape:path-effect
       effect="powerstroke"
       id="path-effect148"
       is_visible="true"
       lpeversion="1.3"
       scale_width="1"
       interpolator_type="CubicBezierJohan"
       interpolator_beta="0.2"
       start_linecap_type="zerowidth"
       end_linecap_type="zerowidth"
       offset_points="1,3.4443867"
       linejoin_type="extrp_arc"
       miter_limit="4"
       not_jump="false"
       sort_points="true"
       message="" />
    <inkscape:path-effect
       effect="powerstroke"
       id="path-effect146"
       is_visible="true"
       lpeversion="1.3"
       scale_width="1"
       interpolator_type="CubicBezierJohan"
       interpolator_beta="0.2"
       start_linecap_type="zerowidth"
       end_linecap_type="zerowidth"
       offset_points="1,3.4443867"
       linejoin_type="extrp_arc"
       miter_limit="4"
       not_jump="false"
       sort_points="true"
       message="" />
    <linearGradient
       id="swatch110"
       inkscape:swatch="solid">
      <stop
         style="stop-color:#000000;stop-opacity:1;"
         offset="0"
         id="stop110" />
    </linearGradient>
    <linearGradient
       id="swatch96"
       inkscape:swatch="solid">
      <stop
         style="stop-color:#ffffff;stop-opacity:1;"
         offset="0"
         id="stop96" />
    </linearGradient>
    <linearGradient
       id="swatch88"
       inkscape:swatch="solid">
      <stop
         style="stop-color:#999999;stop-opacity:1;"
         offset="0"
         id="stop88" />
    </linearGradient>
    <linearGradient
       id="swatch81"
       inkscape:swatch="solid">
      <stop
         style="stop-color:#0000a1;stop-opacity:1;"
         offset="0"
         id="stop81" />
    </linearGradient>
    <linearGradient
       id="swatch80"
       inkscape:swatch="solid">
      <stop
         style="stop-color:#0000a1;stop-opacity:1;"
         offset="0"
         id="stop80" />
    </linearGradient>
    <linearGradient
       id="swatch79"
       inkscape:swatch="solid">
      <stop
         style="stop-color:#0000a1;stop-opacity:1;"
         offset="0"
         id="stop79" />
    </linearGradient>
    <linearGradient
       id="swatch72"
       inkscape:swatch="solid">
      <stop
         style="stop-color:#0000a1;stop-opacity:1;"
         offset="0"
         id="stop72" />
    </linearGradient>
    <linearGradient
       id="swatch58"
       inkscape:swatch="solid">
      <stop
         style="stop-color:#0000a1;stop-opacity:1;"
         offset="0"
         id="stop58" />
    </linearGradient>
    <linearGradient
       id="swatch57"
       inkscape:swatch="solid">
      <stop
         style="stop-color:#0000a1;stop-opacity:1;"
         offset="0"
         id="stop57" />
    </linearGradient>
    <linearGradient
       id="swatch52"
       inkscape:swatch="solid">
      <stop
         style="stop-color:#0000a1;stop-opacity:1;"
         offset="0"
         id="stop52" />
    </linearGradient>
    <inkscape:path-effect
       effect="powerstroke"
       id="path-effect35"
       is_visible="true"
       lpeversion="1.3"
       scale_width="1"
       interpolator_type="CubicBezierJohan"
       interpolator_beta="0.2"
       start_linecap_type="zerowidth"
       end_linecap_type="zerowidth"
       offset_points="1,3.4443867"
       linejoin_type="extrp_arc"
       miter_limit="4"
       not_jump="false"
       sort_points="true"
       message="" />
    <inkscape:path-effect
       effect="powerstroke"
       id="path-effect31"
       is_visible="true"
       lpeversion="1.3"
       scale_width="1"
       interpolator_type="CubicBezierJohan"
       interpolator_beta="0.2"
       start_linecap_type="zerowidth"
       end_linecap_type="zerowidth"
       offset_points="1,3.4443867"
       linejoin_type="extrp_arc"
       miter_limit="4"
       not_jump="false"
       sort_points="true"
       message="" />
    <inkscape:path-effect
       effect="powerstroke"
       id="path-effect29"
       is_visible="true"
       lpeversion="1.3"
       scale_width="1"
       interpolator_type="CubicBezierJohan"
       interpolator_beta="0.2"
       start_linecap_type="zerowidth"
       end_linecap_type="zerowidth"
       offset_points="1,3.4443867"
       linejoin_type="extrp_arc"
       miter_limit="4"
       not_jump="false"
       sort_points="true"
       message="" />
    <inkscape:path-effect
       effect="powerstroke"
       id="path-effect19"
       is_visible="true"
       lpeversion="1.3"
       scale_width="1"
       interpolator_type="CubicBezierJohan"
       interpolator_beta="0.2"
       start_linecap_type="zerowidth"
       end_linecap_type="zerowidth"
       offset_points="1,3.4443867"
       linejoin_type="extrp_arc"
       miter_limit="4"
       not_jump="false"
       sort_points="true"
       message="" />
    <inkscape:path-effect
       effect="powerstroke"
       id="path-effect17"
       is_visible="true"
       lpeversion="1.3"
       scale_width="1"
       interpolator_type="CubicBezierJohan"
       interpolator_beta="0.2"
       start_linecap_type="zerowidth"
       end_linecap_type="zerowidth"
       offset_points="1,3.4443867"
       linejoin_type="extrp_arc"
       miter_limit="4"
       not_jump="false"
       sort_points="true"
       message="" />
    <inkscape:path-effect
       effect="powerstroke"
       id="path-effect15"
       is_visible="true"
       lpeversion="1.3"
       scale_width="1"
       interpolator_type="CubicBezierJohan"
       interpolator_beta="0.2"
       start_linecap_type="zerowidth"
       end_linecap_type="zerowidth"
       offset_points="1,3.4443867"
       linejoin_type="extrp_arc"
       miter_limit="4"
       not_jump="false"
       sort_points="true"
       message="" />
    <inkscape:path-effect
       effect="powerstroke"
       id="path-effect36"
       is_visible="true"
       lpeversion="1.3"
       scale_width="1"
       interpolator_type="CubicBezierJohan"
       interpolator_beta="0.2"
       start_linecap_type="zerowidth"
       end_linecap_type="zerowidth"
       offset_points="1,3.4443867"
       linejoin_type="extrp_arc"
       miter_limit="4"
       not_jump="false"
       sort_points="true"
       message="" />
    <inkscape:path-effect
       effect="powerstroke"
       id="path-effect34"
       is_visible="true"
       lpeversion="1.3"
       scale_width="1"
       interpolator_type="CubicBezierJohan"
       interpolator_beta="0.2"
       start_linecap_type="zerowidth"
       end_linecap_type="zerowidth"
       offset_points="1,3.4443867"
       linejoin_type="extrp_arc"
       miter_limit="4"
       not_jump="false"
       sort_points="true"
       message="" />
    <inkscape:path-effect
       effect="powerstroke"
       id="path-effect32"
       is_visible="true"
       lpeversion="1.3"
       scale_width="1"
       interpolator_type="CubicBezierJohan"
       interpolator_beta="0.2"
       start_linecap_type="zerowidth"
       end_linecap_type="zerowidth"
       offset_points="1,3.4443867"
       linejoin_type="extrp_arc"
       miter_limit="4"
       not_jump="false"
       sort_points="true"
       message="" />
    <inkscape:path-effect
       effect="powerstroke"
       id="path-effect25"
       is_visible="true"
       lpeversion="1.3"
       scale_width="1"
       interpolator_type="CubicBezierJohan"
       interpolator_beta="0.2"
       start_linecap_type="zerowidth"
       end_linecap_type="zerowidth"
       offset_points="1,3.4443867"
       linejoin_type="extrp_arc"
       miter_limit="4"
       not_jump="false"
       sort_points="true"
       message="" />
    <inkscape:path-effect
       effect="powerstroke"
       id="path-effect23"
       is_visible="true"
       lpeversion="1.3"
       scale_width="1"
       interpolator_type="CubicBezierJohan"
       interpolator_beta="0.2"
       start_linecap_type="zerowidth"
       end_linecap_type="zerowidth"
       offset_points="1,3.4443867"
       linejoin_type="extrp_arc"
       miter_limit="4"
       not_jump="false"
       sort_points="true"
       message="" />
    <inkscape:path-effect
       effect="powerstroke"
       id="path-effect21"
       is_visible="true"
       lpeversion="1.3"
       scale_width="1"
       interpolator_type="CubicBezierJohan"
       interpolator_beta="0.2"
       start_linecap_type="zerowidth"
       end_linecap_type="zerowidth"
       offset_points="1,3.4443867"
       linejoin_type="extrp_arc"
       miter_limit="4"
       not_jump="false"
       sort_points="true"
       message="" />
    <inkscape:path-effect
       effect="powerstroke"
       id="path-effect13"
       is_visible="true"
       lpeversion="1.3"
       scale_width="1"
       interpolator_type="CubicBezierJohan"
       interpolator_beta="0.2"
       start_linecap_type="zerowidth"
       end_linecap_type="zerowidth"
       offset_points="1,3.4443867"
       linejoin_type="extrp_arc"
       miter_limit="4"
       not_jump="false"
       sort_points="true"
       message="" />
    <inkscape:path-effect
       effect="powerstroke"
       id="path-effect11"
       is_visible="true"
       lpeversion="1.3"
       scale_width="1"
       interpolator_type="CubicBezierJohan"
       interpolator_beta="0.2"
       start_linecap_type="zerowidth"
       end_linecap_type="zerowidth"
       offset_points="1,3.4443867"
       linejoin_type="extrp_arc"
       miter_limit="4"
       not_jump="false"
       sort_points="true"
       message="" />
    <inkscape:path-effect
       effect="powerstroke"
       id="path-effect9"
       is_visible="true"
       lpeversion="1.3"
       scale_width="1"
       interpolator_type="CubicBezierJohan"
       interpolator_beta="0.2"
       start_linecap_type="zerowidth"
       end_linecap_type="zerowidth"
       offset_points="1,3.4443867"
       linejoin_type="extrp_arc"
       miter_limit="4"
       not_jump="false"
       sort_points="true"
       message="" />
    <inkscape:path-effect
       effect="powerstroke"
       id="path-effect48"
       is_visible="true"
       lpeversion="1.3"
       scale_width="1"
       interpolator_type="CubicBezierJohan"
       interpolator_beta="0.2"
       start_linecap_type="zerowidth"
       end_linecap_type="zerowidth"
       offset_points="1,3.4443867"
       linejoin_type="extrp_arc"
       miter_limit="4"
       not_jump="false"
       sort_points="true"
       message="" />
    <inkscape:path-effect
       effect="powerstroke"
       id="path-effect91"
       is_visible="true"
       lpeversion="1.3"
       scale_width="1"
       interpolator_type="CubicBezierJohan"
       interpolator_beta="0.2"
       start_linecap_type="zerowidth"
       end_linecap_type="zerowidth"
       offset_points="1,3.4443867"
       linejoin_type="extrp_arc"
       miter_limit="4"
       not_jump="false"
       sort_points="true"
       message="" />
    <inkscape:path-effect
       effect="powerstroke"
       id="path-effect93"
       is_visible="true"
       lpeversion="1.3"
       scale_width="1"
       interpolator_type="CubicBezierJohan"
       interpolator_beta="0.2"
       start_linecap_type="zerowidth"
       end_linecap_type="zerowidth"
       offset_points="1,3.4443867"
       linejoin_type="extrp_arc"
       miter_limit="4"
       not_jump="false"
       sort_points="true"
       message="" />
    <linearGradient
       inkscape:collect="always"
       xlink:href="#linearGradient61"
       id="linearGradient90"
       gradientUnits="userSpaceOnUse"
       gradientTransform="matrix(0.23512392,0,0,0.21455403,4.7247245,48.20331)"
       x1="133.44203"
       y1="360.93829"
       x2="133.46812"
       y2="186.46236" />
    <linearGradient
       id="linearGradient61"
       inkscape:swatch="gradient">
      <stop
         style="stop-color:#ff6600;stop-opacity:1;"
         offset="0"
         id="stop130" />
      <stop
         style="stop-color:#e12767;stop-opacity:1;"
         offset="1"
         id="stop131" />
    </linearGradient>
    <linearGradient
       id="swatch75"
       inkscape:swatch="solid"
       inkscape:label="bcc-orange">
      <stop
         style="stop-color:#f57038;stop-opacity:1;"
         offset="0"
         id="stop75" />
    </linearGradient>
    <linearGradient
       id="swatch93"
       inkscape:swatch="solid"
       inkscape:label="navy">
      <stop
         style="stop-color:#1e2545;stop-opacity:1;"
         offset="0"
         id="stop93" />
    </linearGradient>
    <inkscape:path-effect
       effect="powerstroke"
       id="path-effect333"
       is_visible="true"
       lpeversion="1.3"
       scale_width="1"
       interpolator_type="CubicBezierJohan"
       interpolator_beta="0.2"
       start_linecap_type="zerowidth"
       end_linecap_type="zerowidth"
       offset_points="1,3.4443867"
       linejoin_type="extrp_arc"
       miter_limit="4"
       not_jump="false"
       sort_points="true"
       message="" />
    <inkscape:path-effect
       effect="powerstroke"
       id="path-effect335"
       is_visible="true"
       lpeversion="1.3"
       scale_width="1"
       interpolator_type="CubicBezierJohan"
       interpolator_beta="0.2"
       start_linecap_type="zerowidth"
       end_linecap_type="zerowidth"
       offset_points="1,3.4443867"
       linejoin_type="extrp_arc"
       miter_limit="4"
       not_jump="false"
       sort_points="true"
       message="" />
    <inkscape:path-effect
       effect="powerstroke"
       id="path-effect337"
       is_visible="true"
       lpeversion="1.3"
       scale_width="1"
       interpolator_type="CubicBezierJohan"
       interpolator_beta="0.2"
       start_linecap_type="zerowidth"
       end_linecap_type="zerowidth"
       offset_points="1,3.4443867"
       linejoin_type="extrp_arc"
       miter_limit="4"
       not_jump="false"
       sort_points="true"
       message="" />
    <linearGradient
       inkscape:collect="always"
       xlink:href="#swatch93"
       id="linearGradient73"
       x1="70.017601"
       y1="36.515274"
       x2="78.694679"
       y2="36.515274"
       gradientUnits="userSpaceOnUse" />
    <linearGradient
       inkscape:collect="always"
       xlink:href="#swatch93"
       id="linearGradient140"
       gradientUnits="userSpaceOnUse"
       x1="70.017601"
       y1="36.515274"
       x2="78.694679"
       y2="36.515274" />
    <linearGradient
       inkscape:collect="always"
       xlink:href="#swatch93"
       id="linearGradient141"
       gradientUnits="userSpaceOnUse"
       x1="70.017601"
       y1="36.515274"
       x2="78.694679"
       y2="36.515274" />
    <linearGradient
       inkscape:collect="always"
       xlink:href="#swatch93"
       id="linearGradient142"
       gradientUnits="userSpaceOnUse"
       x1="70.017601"
       y1="36.515274"
       x2="78.694679"
       y2="36.515274" />
    <linearGradient
       inkscape:collect="always"
       xlink:href="#swatch93"
       id="linearGradient29"
       gradientUnits="userSpaceOnUse"
       gradientTransform="translate(-119.00151,-86.080905)"
       x1="132.2495"
       y1="193.53401"
       x2="161.68881"
       y2="193.53401" />
    <linearGradient
       inkscape:collect="always"
       xlink:href="#swatch93"
       id="linearGradient154"
       gradientUnits="userSpaceOnUse"
       gradientTransform="matrix(0.86543906,0,0,0.86547236,-103.41384,19.198441)"
       x1="132.2495"
       y1="193.53401"
       x2="161.68881"
       y2="193.53401" />
    <linearGradient
       inkscape:collect="always"
       xlink:href="#swatch75"
       id="linearGradient155"
       gradientUnits="userSpaceOnUse"
       gradientTransform="matrix(0.86543906,0,0,0.86547236,-103.4135,-12.022381)"
       x1="132.2495"
       y1="193.53401"
       x2="161.68881"
       y2="193.53401" />
    <linearGradient
       inkscape:collect="always"
       xlink:href="#swatch75"
       id="linearGradient174"
       gradientUnits="userSpaceOnUse"
       gradientTransform="translate(0,-73.289583)"
       x1="35.96405"
       y1="223.58453"
       x2="118.04996"
       y2="223.58453" />
    <linearGradient
       inkscape:collect="always"
       xlink:href="#swatch75"
       id="linearGradient175"
       gradientUnits="userSpaceOnUse"
       gradientTransform="translate(0,-73.289583)"
       x1="32.500957"
       y1="238.10532"
       x2="109.98109"
       y2="238.10532" />
    <linearGradient
       inkscape:collect="always"
       xlink:href="#swatch93"
       id="linearGradient180"
       gradientUnits="userSpaceOnUse"
       gradientTransform="translate(0,-42.06875)"
       x1="35.96405"
       y1="223.58453"
       x2="118.04996"
       y2="223.58453" />
    <linearGradient
       inkscape:collect="always"
       xlink:href="#swatch93"
       id="linearGradient181"
       gradientUnits="userSpaceOnUse"
       gradientTransform="translate(0,-42.06875)"
       x1="32.500957"
       y1="238.10532"
       x2="109.98109"
       y2="238.10532" />
  </defs>
  <g
     inkscape:label="Layer 1"
     inkscape:groupmode="layer"
     id="layer1">
    <rect
       style="font-variation-settings:normal;vector-effect:none;fill:url(#linearGradient90);fill-opacity:1;stroke:none;stroke-width:0.488444;stroke-linecap:butt;stroke-linejoin:miter;stroke-miterlimit:4;stroke-dasharray:none;stroke-dashoffset:0;stroke-opacity:1;-inkscape-stroke:none;paint-order:markers stroke fill;stop-color:#000000"
       id="rect90"
       width="44.232838"
       height="42.75684"
       x="6.4912972"
       y="84.611839"
       ry="0.15256242" />
    <g
       id="g142"
       transform="translate(-0.85989583,-0.9921875)">
      <g
         id="g27"
         transform="translate(-29.888801,66.165038)"
         style="font-variation-settings:normal;vector-effect:none;fill:url(#linearGradient73);fill-opacity:1;stroke-width:0.488445;stroke-linecap:butt;stroke-linejoin:miter;stroke-miterlimit:4;stroke-dasharray:none;stroke-dashoffset:0;stroke-opacity:1;-inkscape-stroke:none;stop-color:#000000">
        <path
           style="font-variation-settings:normal;vector-effect:none;fill:url(#linearGradient140);fill-opacity:1;fill-rule:nonzero;stroke:none;stroke-width:1.78014;stroke-linecap:butt;stroke-linejoin:miter;stroke-miterlimit:4;stroke-dasharray:none;stroke-dashoffset:0;stroke-opacity:1;-inkscape-stroke:none;stop-color:#000000;stop-opacity:1"
           d="m 131.63021,152.26771 c 4.14073,-1.94469 18.02713,-4.66108 22.16786,-6.60577 0,0 -1.46421,-3.11767 -1.46421,-3.11767 0,0 -1.46421,-3.11767 -1.46421,-3.11767 -4.14073,1.94468 -15.09871,10.89642 -19.23944,12.84111 z"
           id="path24"
           inkscape:linked-fill="path20"
           sodipodi:nodetypes="cc"
           transform="matrix(0.24914029,0.1161733,-0.11660641,0.24781473,57.362497,-20.971155)"
           inkscape:original-d="m 131.63021,152.26771 20.70365,-9.72344"
           inkscape:path-effect="#path-effect29" />
        <path
           style="font-variation-settings:normal;vector-effect:none;fill:url(#linearGradient141);fill-opacity:1;fill-rule:nonzero;stroke:none;stroke-width:1.54492;stroke-linecap:butt;stroke-linejoin:miter;stroke-miterlimit:4;stroke-dasharray:none;stroke-dashoffset:0;stroke-opacity:1;-inkscape-stroke:none;stop-color:#000000;stop-opacity:1"
           d="m 131.63021,152.26771 c 4.14073,-1.94469 18.02713,-4.66108 22.16786,-6.60577 0,0 -1.46421,-3.11767 -1.46421,-3.11767 0,0 -1.46421,-3.11767 -1.46421,-3.11767 -4.14073,1.94468 -15.09871,10.89642 -19.23944,12.84111 z"
           id="path25"
           inkscape:linked-fill="path20"
           sodipodi:nodetypes="cc"
           transform="matrix(0.2189092,0.22892876,-0.22883939,0.21730483,76.913051,-29.039822)"
           inkscape:original-d="m 131.63021,152.26771 20.70365,-9.72344"
           inkscape:path-effect="#path-effect31" />
        <path
           style="font-variation-settings:normal;vector-effect:none;fill:url(#linearGradient142);fill-opacity:1;fill-rule:nonzero;stroke:none;stroke-width:1.54492;stroke-linecap:butt;stroke-linejoin:miter;stroke-miterlimit:4;stroke-dasharray:none;stroke-dashoffset:0;stroke-opacity:1;-inkscape-stroke:none;stop-color:#000000;stop-opacity:1"
           d="m 131.63021,152.26771 c 4.14073,-1.94469 18.02713,-4.66108 22.16786,-6.60577 0,0 -1.46421,-3.11767 -1.46421,-3.11767 0,0 -1.46421,-3.11767 -1.46421,-3.11767 -4.14073,1.94468 -15.09871,10.89642 -19.23944,12.84111 z"
           id="path27"
           inkscape:linked-fill="path20"
           sodipodi:nodetypes="cc"
           transform="matrix(0.14886401,0.27958741,-0.27906761,0.14734355,92.915589,-22.539641)"
           inkscape:original-d="m 131.63021,152.26771 20.70365,-9.72344"
           inkscape:path-effect="#path-effect35" />
      </g>
      <path
         id="path29"
         style="-inkscape-font-specification:'Montserrat, Bold Italic';fill:url(#linearGradient29);stroke-width:0.488444"
         d="m 28.434213,92.247774 c -0.17593,-0.003 -0.34734,-0.002 -0.51573,0.002 -1.1226,0.0295 -2.10614,0.22725 -3.33416,0.68368 -1.93844,0.72048 -3.72833,2.41099 -5.33869,3.91036 -2.48138,2.31035 -4.46744,5.183506 -4.46744,8.871306 0,5.26266 3.91908,8.43566 8.88319,8.43566 2.46339,0 4.55397,-0.78402 6.12159,-2.23966 l -0.14935,0.85835 c -0.70915,3.39644 -2.53813,5.18831 -6.5691,5.18831 -2.83663,0 -5.48678,-0.85841 -7.05435,-2.16473 l -2.76212,4.21732 c 2.35142,1.71692 5.63598,2.64997 9.55498,2.64997 6.94229,0 11.30924,-3.17251 12.83953,-10.89856 l 1.22078,-6.38169 c 0.1234,0.0301 0.24844,0.0534 0.37207,0.062 0.42431,0.0296 0.94658,-0.11986 1.31917,-0.28152 0.30273,-0.13132 0.60933,-0.56089 0.75906,-0.80508 0.15558,-0.25372 0.18968,-0.55988 0.13229,-0.83768 -0.0606,-0.29362 -0.28361,-0.55556 -0.48937,-0.80563 -0.33477,-0.40684 -0.79421,-0.85336 -1.26091,-1.28416 -0.76304,-0.70435 -1.5513,-1.35552 -1.88979,-1.640216 -0.54553,-0.45881 -0.41783,-0.75013 -0.32608,-1.0294 0.0918,-0.27928 0.37479,-0.42791 0.89993,-0.65133 0.5251,-0.22342 1.15427,-0.31246 2.09984,-0.46711 0.94558,-0.15466 2.53517,-0.33678 3.21742,-0.57557 0.68226,-0.2388 0.85803,-0.37726 0.93069,-0.56838 0.13954,-0.36726 0.0292,-0.82917 -0.27543,-1.12913 -0.3295,-0.32442 -0.93761,-0.40801 -1.45314,-0.50281 -1.7555,-0.2409 -4.60925,-0.18042 -5.425,-0.34003 -0.8157,-0.15958 -1.18244,-0.45769 -1.56993,-0.68111 -0.38747,-0.22343 -1.44798,-1.26073 -3.73207,-1.48415 -0.6424,-0.0628 -1.21008,-0.10256 -1.73788,-0.1111 z m -0.17345,1.8924 c 0.18533,0.006 0.34168,0.0559 0.45842,0.0841 0.15102,0.0365 1.21961,0.27271 1.85866,0.58806 0.20194,0.0996 0.40128,0.22422 0.54976,0.3935 0.30695,0.35003 0.54481,0.83755 0.40669,1.26271 -0.22538,0.69381 -0.94656,1.10105 -1.64807,0.89243 -0.70152,-0.20857 -1.10103,-0.94652 -0.89242,-1.64805 0.0595,-0.19707 0.16425,-0.37755 0.30563,-0.52717 l -0.94076,-0.48261 c -0.23661,-0.12145 -0.45256,-0.2377 -0.38283,-0.41172 0.0583,-0.14547 0.20299,-0.15398 0.28492,-0.15123 z m -1.32741,0.87214 c 0.56053,0.50376 0.55577,1.41473 0.66863,2.15987 0.23108,1.52574 1.33349,3.378466 1.33349,3.378466 0,0 -3.37796,-0.20486 -4.83532,-0.964816 -0.81893,-0.42704 -1.84089,-1.00765 -1.99977,-1.91737 -0.15396,-0.88155 0.44954,-1.90732 1.19337,-2.40486 1.0108,-0.67613 3.00056,-0.82566 3.6396,-0.25129 z m 8.83633,0.41874 c 0.57822,0.0713 4.66083,0.1778 5.13454,0.21982 0.35774,0.0317 0.97317,0.13344 0.96328,0.40288 -0.0276,0.20739 -0.29984,0.21665 -0.57516,0.26922 -0.27532,0.0526 -5.60947,0.9338 -5.60947,0.9338 0,0 -0.67249,0.13815 -1.14272,0.37986 -0.47023,0.24172 -0.66223,0.35941 -1.61277,1.03872 0,0 0.0364,-1.91726 0.0468,-2.89025 0.002,-0.18748 0.17892,-0.43454 0.37724,-0.47904 0.76808,-0.17235 1.48302,0.01 2.41826,0.12499 z m -3.0387,5.160376 3.48078,2.78019 c 0,0 0.43078,0.31643 0.70332,0.38343 0.0722,0.0178 0.16186,0.0303 0.22686,0 0.11045,-0.0514 0.46658,-0.17625 0.52012,-0.39373 -0.0225,-0.13589 -0.16897,-0.2222 -0.16897,-0.2222 0,0 -1.36775,-1.05949 -2.16162,-1.62781 -0.0787,-0.0563 -0.1683,-0.13209 -0.1633,-0.21549 0.005,-0.10103 0.11332,-0.19512 0.22427,-0.24702 0.18814,-0.088 0.65268,-0.0641 0.65268,-0.0641 0,0 1.89818,1.41722 2.44635,2.41328 0.1078,0.19589 0.20247,0.45329 0.11802,0.66032 -0.1362,0.33391 -0.5346,0.52751 -0.88094,0.62802 -0.3759,0.10909 -0.80629,0.0743 -1.1725,-0.0639 -0.81199,-0.30637 -4.71272,-3.19858 -4.71272,-3.19858 z m -9.7507,0.45272 c 1.0709,0.0581 3.24976,0.72516 4.16202,0.85525 0.73569,0.10492 1.48157,0.13841 2.22467,0.14521 0.47403,0.004 1.11286,-0.0866 1.42059,-0.0667 0.17207,0.45892 0.26406,0.97178 0.26406,1.5353 0,3.43382 -2.42589,5.86011 -5.82238,5.86011 -2.87396,0 -4.59093,-1.53028 -4.59093,-3.95635 0,-1.70253 0.40905,-3.32852 1.63607,-4.19044 0.22361,-0.15707 0.44596,-0.19652 0.7059,-0.18242 z"
         sodipodi:nodetypes="ccssssccsccscccsscssssszzcscsssccssscsscccsssscsaasssczszssssccccscscssaascscscsssssscs" />
    </g>
    <g
       id="g181">
      <text
         xml:space="preserve"
         style="font-style:italic;font-variant:normal;font-weight:bold;font-stretch:normal;font-size:21.5254px;line-height:normal;font-family:Montserrat;-inkscape-font-specification:'Montserrat, Bold Italic';font-variant-ligatures:normal;font-variant-caps:normal;font-variant-numeric:normal;font-variant-east-asian:normal;text-decoration-color:#000000;letter-spacing:2.64583px;white-space:pre;fill:url(#linearGradient180);fill-opacity:1;stroke-width:0.488445;-inkscape-stroke:none"
         x="35.186275"
         y="189.50897"
         id="text117"><tspan
           sodipodi:role="line"
           id="tspan117"
           style="font-style:italic;font-variant:normal;font-weight:bold;font-stretch:normal;font-size:21.5254px;font-family:Montserrat;-inkscape-font-specification:'Montserrat, Bold Italic';font-variant-ligatures:normal;font-variant-caps:normal;font-variant-numeric:normal;font-variant-east-asian:normal;letter-spacing:2.64583px;fill:url(#linearGradient180);fill-opacity:1;stroke-width:0.488445"
           x="35.186275"
           y="189.50897">oosed</tspan></text>
      <text
         xml:space="preserve"
         style="font-style:italic;font-variant:normal;font-weight:normal;font-stretch:normal;font-size:7.92586px;line-height:normal;font-family:Sans;-inkscape-font-specification:'Sans, Italic';font-variant-ligatures:normal;font-variant-caps:normal;font-variant-numeric:normal;font-variant-east-asian:normal;text-decoration-color:#000000;letter-spacing:8.46667px;white-space:pre;fill:url(#linearGradient181);fill-opacity:1;stroke-width:0.488445;-inkscape-stroke:none"
         x="32.164265"
         y="198.22894"
         id="text118"><tspan
           sodipodi:role="line"
           id="tspan118"
           style="font-style:italic;font-variant:normal;font-weight:normal;font-stretch:normal;font-size:7.92586px;font-family:Montserrat;-inkscape-font-specification:'Montserrat, Italic';font-variant-ligatures:normal;font-variant-caps:normal;font-variant-numeric:normal;font-variant-east-asian:normal;letter-spacing:8.46667px;fill:url(#linearGradient181);fill-opacity:1;stroke-width:0.488445"
           x="32.164265"
           y="198.22894">cycling</tspan></text>
      <path
         id="path145"
         style="-inkscape-font-specification:'Montserrat, Bold Italic';fill:url(#linearGradient154);stroke-width:0.422727"
         d="m 24.182793,173.53698 c -0.152256,-0.003 -0.300601,-0.002 -0.446332,0.002 -0.971542,0.0255 -1.822736,0.19668 -2.885513,0.59171 -1.677601,0.62355 -3.226642,2.08664 -4.620311,3.38431 -2.147483,1.99954 -3.866297,4.48618 -3.866297,7.67787 0,4.55468 3.391725,7.30083 7.68786,7.30083 2.131914,0 3.941183,-0.67855 5.297863,-1.93837 l -0.129253,0.74288 c -0.613726,2.93953 -2.196597,4.49034 -5.685156,4.49034 -2.45493,0 -4.748474,-0.74293 -6.10511,-1.87351 l -2.390447,3.64997 c 2.035011,1.48595 4.877598,2.29348 8.269253,2.29348 6.008129,0 9.787458,-2.74572 11.111831,-9.4324 l 1.056511,-5.52318 c 0.106795,0.026 0.21501,0.0462 0.322004,0.0537 0.367214,0.0256 0.819207,-0.10374 1.141661,-0.24365 0.261994,-0.11365 0.527338,-0.48543 0.65692,-0.69677 0.134645,-0.21959 0.164157,-0.48456 0.114489,-0.72499 -0.05245,-0.25412 -0.245447,-0.48082 -0.42352,-0.69725 -0.289723,-0.35211 -0.68734,-0.73856 -1.091241,-1.11141 -0.660364,-0.60959 -1.342555,-1.17316 -1.635498,-1.41956 -0.472123,-0.39709 -0.361606,-0.64922 -0.282202,-0.89092 0.07945,-0.24171 0.324358,-0.37034 0.778835,-0.56371 0.454442,-0.19336 0.99895,-0.27042 1.817283,-0.40427 0.818342,-0.13385 2.194035,-0.29147 2.784481,-0.49814 0.590455,-0.20667 0.742573,-0.32651 0.805456,-0.49191 0.120763,-0.31786 0.02527,-0.71763 -0.238368,-0.97724 -0.285162,-0.28077 -0.811445,-0.35312 -1.257604,-0.43516 -1.519279,-0.20849 -3.989025,-0.15615 -4.695007,-0.29428 -0.705939,-0.13812 -1.02333,-0.39612 -1.358679,-0.58949 -0.335332,-0.19336 -1.253139,-1.09112 -3.229879,-1.28449 -0.555958,-0.0543 -1.047251,-0.0888 -1.50403,-0.0961 z m -0.15011,1.63782 c 0.160392,0.005 0.295703,0.0484 0.396735,0.0728 0.130698,0.0316 1.055498,0.23603 1.608557,0.50895 0.174766,0.0862 0.347283,0.19406 0.475783,0.34057 0.265647,0.30294 0.4715,0.72487 0.351966,1.09284 -0.195053,0.60047 -0.81919,0.95293 -1.426304,0.77237 -0.607123,-0.18051 -0.952875,-0.81919 -0.772335,-1.42634 0.05149,-0.17056 0.142148,-0.32676 0.264504,-0.45625 l -0.814171,-0.41769 c -0.204771,-0.10511 -0.391663,-0.20572 -0.331316,-0.35633 0.05045,-0.1259 0.175676,-0.13327 0.246581,-0.13089 z m -1.148792,0.75482 c 0.485104,0.43599 0.480985,1.22441 0.578658,1.8693 0.199986,1.32049 1.154054,2.92397 1.154054,2.92397 0,0 -2.923418,-0.1773 -4.184674,-0.83502 -0.708734,-0.36959 -1.593178,-0.87209 -1.730679,-1.65943 -0.133243,-0.76296 0.389049,-1.65073 1.032789,-2.08134 0.874785,-0.58517 2.596801,-0.71459 3.149852,-0.21748 z m 7.647305,0.3624 c 0.500414,0.0617 4.033664,0.15389 4.443631,0.19025 0.309602,0.0274 0.84222,0.11549 0.83366,0.34868 -0.02389,0.17949 -0.259493,0.18751 -0.497766,0.23301 -0.238272,0.0455 -4.854654,0.80817 -4.854654,0.80817 0,0 -0.581999,0.11957 -0.988955,0.32876 -0.406955,0.2092 -0.573119,0.31106 -1.395754,0.89899 0,0 0.0315,-1.65934 0.0405,-2.50144 0.0017,-0.16225 0.154844,-0.37608 0.326478,-0.41459 0.664727,-0.14917 1.283464,0.009 2.092857,0.10817 z m -2.62981,4.46617 3.012403,2.40617 c 0,0 0.372814,0.27386 0.608681,0.33185 0.06248,0.0154 0.14008,0.0262 0.196333,0 0.09559,-0.0445 0.403797,-0.15253 0.450132,-0.34075 -0.01947,-0.11762 -0.146233,-0.19232 -0.146233,-0.19232 0,0 -1.183704,-0.91696 -1.87075,-1.40882 -0.06811,-0.0487 -0.145654,-0.11431 -0.141326,-0.1865 0.0043,-0.0874 0.09807,-0.16888 0.194092,-0.21378 0.162823,-0.0762 0.564854,-0.0555 0.564854,-0.0555 0,0 1.642759,1.22656 2.117167,2.08862 0.09329,0.16954 0.175226,0.39231 0.102139,0.57149 -0.117873,0.28899 -0.462663,0.45654 -0.7624,0.54353 -0.325318,0.0944 -0.697794,0.0643 -1.014727,-0.0553 -0.702728,-0.26515 -4.078572,-2.76828 -4.078572,-2.76828 z M 19.462749,181.15 c 0.926799,0.0503 2.81247,0.62761 3.601975,0.7402 0.636695,0.0908 1.282209,0.11979 1.925316,0.12567 0.410245,0.003 0.963113,-0.0749 1.229435,-0.0577 0.148916,0.39718 0.228527,0.84104 0.228527,1.32876 0,2.97187 -2.09946,5.07176 -5.038915,5.07176 -2.487237,0 -3.97317,-1.32442 -3.97317,-3.42411 0,-1.4735 0.354008,-2.88074 1.415919,-3.62671 0.193521,-0.13594 0.385951,-0.17009 0.610913,-0.15788 z"
         sodipodi:nodetypes="ccssssccsccscccsscssssszzcscsssccssscsscccsssscsaasssczszssssccccscscssaascscscsssssscs" />
    </g>
    <g
       id="g175">
      <text
         xml:space="preserve"
         style="font-style:italic;font-variant:normal;font-weight:bold;font-stretch:normal;font-size:21.5254px;line-height:normal;font-family:Montserrat;-inkscape-font-specification:'Montserrat, Bold Italic';font-variant-ligatures:normal;font-variant-caps:normal;font-variant-numeric:normal;font-variant-east-asian:normal;text-decoration-color:#000000;letter-spacing:2.64583px;white-space:pre;fill:url(#linearGradient174);fill-opacity:1;stroke-width:0.488445;-inkscape-stroke:none"
         x="35.186275"
         y="158.28815"
         id="text46"><tspan
           sodipodi:role="line"
           id="tspan46"
           style="font-style:italic;font-variant:normal;font-weight:bold;font-stretch:normal;font-size:21.5254px;font-family:Montserrat;-inkscape-font-specification:'Montserrat, Bold Italic';font-variant-ligatures:normal;font-variant-caps:normal;font-variant-numeric:normal;font-variant-east-asian:normal;letter-spacing:2.64583px;fill:url(#linearGradient174);fill-opacity:1;stroke-width:0.488445"
           x="35.186275"
           y="158.28815">oosed</tspan></text>
      <text
         xml:space="preserve"
         style="font-style:italic;font-variant:normal;font-weight:normal;font-stretch:normal;font-size:7.92586px;line-height:normal;font-family:Sans;-inkscape-font-specification:'Sans, Italic';font-variant-ligatures:normal;font-variant-caps:normal;font-variant-numeric:normal;font-variant-east-asian:normal;text-decoration-color:#000000;letter-spacing:8.46667px;white-space:pre;fill:url(#linearGradient175);fill-opacity:1;stroke-width:0.488445;-inkscape-stroke:none"
         x="32.164265"
         y="167.00812"
         id="text47"><tspan
           sodipodi:role="line"
           id="tspan47"
           style="font-style:italic;font-variant:normal;font-weight:normal;font-stretch:normal;font-size:7.92586px;font-family:Montserrat;-inkscape-font-specification:'Montserrat, Italic';font-variant-ligatures:normal;font-variant-caps:normal;font-variant-numeric:normal;font-variant-east-asian:normal;letter-spacing:8.46667px;fill:url(#linearGradient175);fill-opacity:1;stroke-width:0.488445"
           x="32.164265"
           y="167.00812">cycling</tspan></text>
      <path
         id="path154"
         style="-inkscape-font-specification:'Montserrat, Bold Italic';fill:url(#linearGradient155);stroke-width:0.422727"
         d="m 24.183137,142.31615 c -0.152256,-0.003 -0.300601,-0.002 -0.446332,0.002 -0.971542,0.0255 -1.822736,0.19668 -2.885513,0.59171 -1.677601,0.62355 -3.226642,2.08664 -4.620311,3.38431 -2.147483,1.99954 -3.866297,4.48618 -3.866297,7.67787 0,4.55468 3.391725,7.30083 7.68786,7.30083 2.131914,0 3.941183,-0.67855 5.297863,-1.93837 l -0.129253,0.74289 c -0.613726,2.93952 -2.196597,4.49034 -5.685156,4.49034 -2.45493,0 -4.748474,-0.74293 -6.10511,-1.87351 l -2.390447,3.64996 c 2.035011,1.48596 4.877598,2.29348 8.269253,2.29348 6.008129,0 9.787458,-2.74572 11.111831,-9.4324 l 1.056511,-5.52318 c 0.106795,0.026 0.21501,0.0462 0.322004,0.0537 0.367214,0.0256 0.819207,-0.10374 1.141661,-0.24365 0.261994,-0.11365 0.527338,-0.48543 0.65692,-0.69677 0.134645,-0.21959 0.164157,-0.48455 0.114489,-0.72498 -0.05245,-0.25412 -0.245447,-0.48082 -0.42352,-0.69725 -0.289723,-0.35212 -0.68734,-0.73857 -1.091241,-1.11142 -0.660364,-0.60958 -1.342555,-1.17315 -1.635498,-1.41955 -0.472123,-0.39709 -0.361606,-0.64923 -0.282202,-0.89092 0.07945,-0.24171 0.324358,-0.37034 0.778835,-0.56371 0.454442,-0.19336 0.99895,-0.27042 1.817283,-0.40427 0.818342,-0.13385 2.194035,-0.29147 2.784481,-0.49814 0.590455,-0.20667 0.742573,-0.32651 0.805456,-0.49191 0.120763,-0.31786 0.02527,-0.71763 -0.238368,-0.97724 -0.285162,-0.28077 -0.811445,-0.35312 -1.257604,-0.43516 -1.519279,-0.20849 -3.989025,-0.15615 -4.695007,-0.29428 -0.705939,-0.13812 -1.02333,-0.39612 -1.358679,-0.58949 -0.335332,-0.19336 -1.253139,-1.09112 -3.229879,-1.28449 -0.555958,-0.0543 -1.047251,-0.0888 -1.50403,-0.0961 z m -0.15011,1.63782 c 0.160392,0.005 0.295703,0.0484 0.396735,0.0728 0.130698,0.0316 1.055498,0.23603 1.608557,0.50895 0.174766,0.0862 0.347283,0.19406 0.475783,0.34057 0.265647,0.30294 0.4715,0.72487 0.351966,1.09284 -0.195053,0.60047 -0.81919,0.95293 -1.426304,0.77237 -0.607123,-0.18051 -0.952875,-0.81919 -0.772335,-1.42634 0.05149,-0.17056 0.142148,-0.32676 0.264504,-0.45625 l -0.814171,-0.41769 c -0.204771,-0.10511 -0.391663,-0.20572 -0.331316,-0.35633 0.05045,-0.1259 0.175676,-0.13327 0.246581,-0.13089 z m -1.148792,0.75482 c 0.485104,0.43599 0.480985,1.22441 0.578658,1.8693 0.199986,1.32049 1.154054,2.92397 1.154054,2.92397 0,0 -2.923418,-0.1773 -4.184674,-0.83502 -0.708734,-0.36958 -1.593178,-0.87209 -1.730679,-1.65942 -0.133243,-0.76296 0.389049,-1.65074 1.032789,-2.08135 0.874785,-0.58517 2.596801,-0.71458 3.149852,-0.21748 z m 7.647305,0.3624 c 0.500414,0.0617 4.033664,0.15389 4.443631,0.19025 0.309602,0.0274 0.84222,0.11549 0.83366,0.34868 -0.02389,0.17949 -0.259493,0.18751 -0.497766,0.23301 -0.238272,0.0455 -4.854654,0.80817 -4.854654,0.80817 0,0 -0.581999,0.11957 -0.988955,0.32876 -0.406955,0.2092 -0.573119,0.31106 -1.395754,0.89899 0,0 0.0315,-1.65934 0.0405,-2.50144 0.0017,-0.16225 0.154844,-0.37608 0.326478,-0.41459 0.664727,-0.14917 1.283464,0.009 2.092857,0.10817 z m -2.62981,4.46617 3.012403,2.40617 c 0,0 0.372814,0.27386 0.608681,0.33185 0.06248,0.0154 0.14008,0.0262 0.196333,0 0.09559,-0.0445 0.403797,-0.15253 0.450132,-0.34075 -0.01947,-0.11762 -0.146233,-0.19232 -0.146233,-0.19232 0,0 -1.183704,-0.91696 -1.87075,-1.40882 -0.06811,-0.0487 -0.145654,-0.11431 -0.141326,-0.1865 0.0043,-0.0874 0.09807,-0.16888 0.194092,-0.21378 0.162823,-0.0762 0.564854,-0.0555 0.564854,-0.0555 0,0 1.642759,1.22656 2.117167,2.08862 0.09329,0.16954 0.175226,0.39231 0.102139,0.57149 -0.117873,0.28899 -0.462663,0.45654 -0.7624,0.54353 -0.325318,0.0944 -0.697794,0.0643 -1.014727,-0.0553 -0.702728,-0.26516 -4.078572,-2.76829 -4.078572,-2.76829 z m -8.438637,0.39181 c 0.926799,0.0503 2.81247,0.62761 3.601975,0.7402 0.636695,0.0908 1.282209,0.11979 1.925316,0.12567 0.410245,0.003 0.963113,-0.0749 1.229435,-0.0577 0.148916,0.39718 0.228527,0.84104 0.228527,1.32876 0,2.97187 -2.09946,5.07176 -5.038915,5.07176 -2.487237,0 -3.97317,-1.32442 -3.97317,-3.42411 0,-1.4735 0.354008,-2.88074 1.415919,-3.62671 0.193521,-0.13594 0.385951,-0.17009 0.610913,-0.15788 z"
         sodipodi:nodetypes="ccssssccsccscccsscssssszzcscsssccssscsscccsssscsaasssczszssssccccscscssaascscscsssssscs" />
    </g>
    <path
       style="display:inline;fill:#f57038;fill-opacity:1;stroke-width:0.094246"
       d="m 25.11681,79.923535 -0.12468,-0.0133 -0.08728,-0.0642 c -0.07484,-0.0551 -0.256024,-0.14845 -0.436378,-0.22491 -0.116988,-0.0496 -0.278266,-0.0946 -0.32603,-0.091 -0.02835,0.002 -0.09423,-0.0164 -0.146448,-0.0412 l -0.09493,-0.045 -0.09796,0.0157 -0.09795,0.0157 -0.104586,-0.0361 c -0.05753,-0.0198 -0.146306,-0.0537 -0.197298,-0.0753 -0.05098,-0.0216 -0.124989,-0.0393 -0.16445,-0.0393 h -0.07174 l -0.04698,-0.052 c -0.05822,-0.0643 -0.193635,-0.12262 -0.284889,-0.12262 -0.03777,0 -0.08186,-0.0158 -0.09794,-0.0352 -0.01606,-0.0194 -0.08557,-0.0487 -0.154448,-0.0652 l -0.125223,-0.0301 -0.05943,-0.0594 c -0.03269,-0.0327 -0.08249,-0.0594 -0.110674,-0.0594 -0.02817,0 -0.07078,-0.0233 -0.09464,-0.0518 -0.02389,-0.0285 -0.07494,-0.0684 -0.113497,-0.0887 l -0.0701,-0.0369 -0.08453,0.0279 -0.08453,0.0279 -0.04886,-0.0261 -0.04886,-0.0261 0.01257,-0.0481 0.01257,-0.0481 -0.05315,-0.0285 c -0.02926,-0.0156 -0.07263,-0.0223 -0.09643,-0.0147 -0.02377,0.008 -0.0795,0.003 -0.123778,-0.009 l -0.08052,-0.0231 -0.08637,-0.0916 c -0.04749,-0.0504 -0.09304,-0.11261 -0.101204,-0.13833 l -0.01486,-0.0467 -0.09824,-0.0265 c -0.05401,-0.0146 -0.09824,-0.0359 -0.09824,-0.0474 0,-0.0115 -0.03578,-0.0358 -0.07947,-0.0539 -0.108347,-0.0449 -0.367309,-0.26367 -0.393448,-0.33242 -0.02286,-0.0601 -0.122029,-0.13653 -0.22937,-0.17683 l -0.06642,-0.0249 -0.08543,-0.12468 c -0.04697,-0.0686 -0.108547,-0.13637 -0.136801,-0.15067 -0.02823,-0.0143 -0.09184,-0.079 -0.141293,-0.14379 -0.109902,-0.14398 -0.269277,-0.32004 -0.397609,-0.43923 -0.0528,-0.049 -0.122771,-0.13476 -0.155454,-0.19045 -0.03269,-0.0557 -0.0864,-0.1266 -0.119372,-0.15758 l -0.05995,-0.0564 0.01263,-0.0483 c 0.01674,-0.064 -0.0328,-0.18386 -0.134664,-0.3256 l -0.08303,-0.11556 -9.1e-5,-0.0715 c -1.09e-4,-0.0774 -0.08316,-0.23355 -0.124223,-0.23355 h -0.02532 v -0.0855 -0.0855 l -0.0392,-0.0392 c -0.02155,-0.0215 -0.05429,-0.0392 -0.07273,-0.0392 -0.04623,0 -0.05981,-0.0506 -0.03297,-0.12303 l 0.02246,-0.0607 -0.02817,-0.068 -0.02817,-0.068 0.02703,-0.0505 c 0.03195,-0.0597 0.03635,-0.29444 0.0058,-0.31329 -0.01166,-0.007 -0.02869,-0.0948 -0.03783,-0.19473 -0.0091,-0.0999 -0.03652,-0.252 -0.06083,-0.33804 l -0.04418,-0.15642 0.0284,-0.24255 0.0284,-0.24255 -0.02377,-0.0864 -0.02377,-0.0864 0.01697,-0.11312 c 0.0093,-0.0622 0.02046,-0.16081 0.02469,-0.21911 l 0.0077,-0.10599 0.08393,-0.0956 c 0.04618,-0.0526 0.103313,-0.13159 0.127,-0.17557 l 0.04309,-0.08 0.09408,-0.0392 c 0.05172,-0.0216 0.122662,-0.0595 0.157597,-0.0843 l 0.06353,-0.0452 0.510002,-0.0117 c 0.54488,-0.0125 0.604994,-0.0184 0.971314,-0.0958 l 0.236891,-0.0501 0.448842,-0.0313 0.448847,-0.0313 0.04652,0.0233 0.04652,0.0233 0.10953,-0.0164 0.109536,-0.0164 -0.02755,0.0605 -0.02754,0.0605 0.06479,0.10264 0.06479,0.10264 v 0.13928 c 0,0.0766 -0.01057,0.15907 -0.02354,0.18325 l -0.02354,0.0439 0.02629,0.18506 c 0.01446,0.10178 0.04589,0.21948 0.06989,0.26157 0.024,0.0421 0.05189,0.13171 0.06199,0.19916 0.01675,0.11152 0.07197,0.25396 0.110691,0.28538 0.0085,0.007 0.04618,0.0538 0.0838,0.10431 l 0.06843,0.0919 v 0.0717 c 0,0.0394 0.01646,0.0935 0.03663,0.1201 0.02012,0.0266 0.03697,0.0661 0.03737,0.0877 4.34e-4,0.0216 0.02886,0.0656 0.06313,0.0978 0.03429,0.0322 0.06234,0.0757 0.06234,0.0967 0,0.021 0.03252,0.0723 0.07231,0.11409 0.03977,0.0418 0.09497,0.11904 0.122674,0.17163 0.02772,0.0526 0.09615,0.13483 0.152112,0.18273 0.05595,0.0479 0.101747,0.1011 0.101747,0.11821 0,0.0332 0.102558,0.13955 0.134578,0.13955 0.01051,0 0.105193,0.0655 0.210351,0.1455 0.224238,0.17064 0.470267,0.29607 0.642169,0.32737 0.0674,0.0123 0.173044,0.035 0.234764,0.0506 0.06172,0.0156 0.139071,0.0232 0.171902,0.017 l 0.0597,-0.0113 0.08992,0.0381 0.08992,0.0381 0.199487,0.005 c 0.109719,0.003 0.283644,0.0189 0.386505,0.0355 l 0.187023,0.0302 0.456854,9e-5 0.456855,1e-4 0.03246,-0.0269 0.03246,-0.0269 0.406112,-0.0134 0.406113,-0.0134 0.08203,-0.0343 0.08204,-0.0343 0.294285,-0.007 c 0.161855,-0.003 0.320076,0.002 0.35161,0.0127 l 0.05733,0.0193 0.06735,-0.0443 0.06735,-0.0443 0.211957,-0.0307 c 0.385625,-0.0559 0.614744,-0.10354 0.693134,-0.14408 0.04257,-0.022 0.114582,-0.04 0.160032,-0.04 0.04543,0 0.141579,-0.0215 0.213626,-0.0479 0.131709,-0.0481 0.605582,-0.29221 0.628847,-0.32388 0.0069,-0.009 0.05538,-0.0418 0.107833,-0.0722 0.134636,-0.078 0.732171,-0.5726 0.753196,-0.62345 0.0096,-0.0232 0.02092,-0.0793 0.02509,-0.12457 0.004,-0.0453 0.0208,-0.0982 0.03692,-0.11764 0.01612,-0.0194 0.06582,-0.096 0.110479,-0.17012 l 0.08119,-0.13482 0.01371,-0.10245 0.01377,-0.10245 0.07724,-0.0975 c 0.04246,-0.0537 0.07724,-0.10854 0.07724,-0.122 0,-0.0135 0.02806,-0.0879 0.06234,-0.16544 0.03429,-0.0775 0.06234,-0.16926 0.06234,-0.20383 0,-0.0346 0.01549,-0.0932 0.03446,-0.1302 0.03555,-0.0694 0.06046,-0.18954 0.07704,-0.37102 0.0051,-0.0573 0.02006,-0.12463 0.03292,-0.14961 0.01286,-0.025 0.03097,-0.14019 0.04023,-0.25602 0.0093,-0.11582 0.02909,-0.22534 0.04401,-0.24336 l 0.0272,-0.0328 -0.01309,-0.0977 -0.01309,-0.0977 0.0722,-0.0643 c 0.03972,-0.0354 0.07219,-0.0815 0.07219,-0.10253 0,-0.021 0.02235,-0.082 0.04966,-0.13551 0.02732,-0.0536 0.04469,-0.11199 0.03869,-0.12992 -0.0061,-0.0179 -0.01606,-0.11116 -0.02223,-0.20717 -0.0062,-0.096 -0.01857,-0.19256 -0.02749,-0.21458 l -0.01623,-0.04 0.05532,-0.0937 0.05532,-0.0937 -0.03943,-0.0782 c -0.02166,-0.043 -0.04578,-0.13146 -0.05355,-0.19655 l -0.01412,-0.11835 0.02223,-0.0562 c 0.02743,-0.0693 0.09341,-0.38682 0.115365,-0.55492 0.03377,-0.25867 0.007,-0.67872 -0.05229,-0.82079 l -0.03034,-0.0727 0.03652,-0.0874 0.03652,-0.0874 0.01206,-0.25144 0.01206,-0.25143 -0.02989,-0.0747 -0.02989,-0.0747 -0.009,-0.43638 c -0.01577,-0.76233 -0.05521,-1.14921 -0.131807,-1.29231 -0.01497,-0.028 -0.02726,-0.11541 -0.02726,-0.1942 0,-0.13619 -0.02555,-0.25317 -0.08248,-0.37745 l -0.02572,-0.0561 h -0.06593 -0.06593 l -0.064,0.0686 c -0.0352,0.0377 -0.09621,0.11787 -0.135578,0.17812 -0.171673,0.26272 -0.19971,0.30098 -0.260859,0.35599 -0.03555,0.032 -0.09724,0.10247 -0.13715,0.15668 -0.03989,0.0542 -0.114485,0.14398 -0.165747,0.19949 -0.05126,0.0555 -0.09333,0.11008 -0.0935,0.12128 -1.72e-4,0.0112 -0.03023,0.0596 -0.06673,0.10745 l -0.06642,0.0871 -0.0023,0.11677 -0.0023,0.11676 -0.09161,0.0431 c -0.0504,0.0237 -0.108519,0.0673 -0.129195,0.0968 l -0.0376,0.0537 -0.09523,-0.0165 c -0.148105,-0.0257 -0.406712,-0.12065 -0.408833,-0.15015 -0.0011,-0.0146 -0.0063,-0.049 -0.01166,-0.0764 -0.0051,-0.0274 0.0078,-0.0963 0.0292,-0.15311 l 0.03892,-0.10324 -0.02949,-0.0551 -0.02949,-0.0551 -0.07882,0.0148 c -0.04337,0.008 -0.207442,0.0321 -0.364645,0.0533 l -0.285815,0.0385 -0.04,0.0362 c -0.022,0.0199 -0.07852,0.0437 -0.125623,0.0529 -0.04709,0.009 -0.111662,0.0336 -0.143465,0.0542 -0.03177,0.0206 -0.112982,0.0461 -0.1804,0.0568 l -0.122571,0.0194 -0.08142,0.0618 c -0.0448,0.034 -0.126315,0.07 -0.181171,0.08 -0.05486,0.01 -0.158512,0.0449 -0.230342,0.0775 -0.173342,0.0787 -0.294828,0.0997 -0.914274,0.15768 l -0.523386,0.049 -0.03875,-0.0349 c -0.02132,-0.0192 -0.06784,-0.0422 -0.103387,-0.051 l -0.06462,-0.0161 -0.07852,0.0661 -0.07852,0.0661 -0.08958,-0.0296 -0.08958,-0.0296 -0.141316,0.0168 c -0.07773,0.009 -0.183418,0.029 -0.234868,0.044 l -0.09355,0.0271 -0.136807,-0.0306 -0.136813,-0.0306 -0.08819,0.0319 -0.08819,0.0319 -0.08042,-0.0335 -0.08042,-0.0335 -0.111291,0.005 c -0.06121,0.003 -0.125669,0.0166 -0.143248,0.0312 l -0.03194,0.0265 -0.05623,-0.0171 c -0.05303,-0.0162 -0.471924,-0.0624 -0.579894,-0.064 -0.02743,-3.8e-4 -0.172559,-0.001 -0.322511,-0.002 l -0.272642,-10e-4 -0.06581,-0.034 c -0.03618,-0.0187 -0.08039,-0.0516 -0.09821,-0.0731 l -0.0324,-0.0391 h -0.08606 c -0.04732,0 -0.172193,-0.0285 -0.277471,-0.0633 l -0.191418,-0.0633 -0.04989,-0.0578 c -0.04846,-0.0562 -0.102821,-0.0851 -0.432086,-0.23042 -0.08679,-0.0383 -0.168536,-0.0897 -0.181662,-0.11422 -0.01314,-0.0245 -0.04321,-0.0446 -0.06686,-0.0446 -0.02366,0 -0.05612,-0.021 -0.07218,-0.0467 -0.01606,-0.0257 -0.06083,-0.0546 -0.09951,-0.0643 -0.03869,-0.01 -0.131995,-0.0644 -0.207374,-0.12159 -0.07537,-0.0572 -0.148311,-0.11206 -0.162084,-0.12185 -0.01377,-0.01 -0.08432,-0.0687 -0.156774,-0.13092 -0.07246,-0.0622 -0.141888,-0.1131 -0.154278,-0.1131 -0.0124,0 -0.100849,-0.0769 -0.196572,-0.17096 -0.09572,-0.094 -0.228279,-0.20219 -0.294571,-0.24035 -0.153043,-0.0881 -0.207802,-0.13576 -0.207802,-0.1808 0,-0.0197 -0.05612,-0.0899 -0.12468,-0.15597 l -0.124681,-0.12017 v -0.0755 -0.0755 l -0.128926,-0.0701 -0.128926,-0.0702 -0.009,-0.0621 -0.009,-0.062 -0.09159,-0.0938 c -0.05035,-0.0516 -0.0835,-0.0938 -0.07364,-0.0938 0.0099,0 -0.01046,-0.0561 -0.0452,-0.12468 -0.03475,-0.0686 -0.07513,-0.12468 -0.08974,-0.12468 -0.01463,0 -0.07534,-0.0475 -0.134956,-0.10547 l -0.108398,-0.10548 0.01412,-0.0704 0.01406,-0.0704 -0.0651,-0.0679 c -0.03583,-0.0374 -0.07818,-0.1069 -0.09419,-0.15451 -0.016,-0.0476 -0.04292,-0.1034 -0.05978,-0.12397 -0.01686,-0.0206 -0.04429,-0.11595 -0.06087,-0.21195 -0.01663,-0.096 -0.04617,-0.23273 -0.06575,-0.30383 l -0.03555,-0.12928 -0.06478,-0.051 -0.06478,-0.051 -0.04772,0.0255 c -0.05823,0.0312 -0.09656,0.011 -0.09656,-0.0508 v -0.0462 l -0.07672,-0.0645 c -0.04218,-0.0355 -0.0971,-0.0646 -0.122011,-0.0646 -0.04943,0 -0.07556,-0.0471 -0.07556,-0.13613 0,-0.0671 -0.04435,-0.10945 -0.141791,-0.13532 l -0.07017,-0.0186 -0.02892,-0.14481 c -0.01589,-0.0797 -0.04543,-0.16132 -0.06559,-0.18149 l -0.03669,-0.0367 0.0356,-0.13635 c 0.03978,-0.15223 0.02812,-0.22333 -0.04018,-0.24499 -0.04983,-0.0158 -0.07526,-0.0826 -0.07604,-0.19994 -2.74e-4,-0.0411 -0.01726,-0.10694 -0.03772,-0.14623 -0.02052,-0.0393 -0.03726,-0.10038 -0.03726,-0.13578 v -0.0644 l -0.06331,-0.0661 -0.06331,-0.0661 0.02623,-0.11708 0.02623,-0.11709 -0.02846,-0.0532 -0.02846,-0.0532 0.02863,-0.16395 c 0.01577,-0.0902 0.03377,-0.24558 0.04006,-0.34533 0.0063,-0.0998 0.02486,-0.20636 0.04126,-0.2369 0.03,-0.0558 0.03732,-0.27093 0.01074,-0.31401 -0.0078,-0.0127 0.0023,-0.0551 0.02286,-0.0942 0.0472,-0.0905 0.0472,-0.14421 2.3e-5,-0.18338 l -0.03737,-0.031 v -0.104718 c 0,-0.106313 -0.06098,-0.323909 -0.107273,-0.382796 -0.01394,-0.01777 -0.03955,-0.02688 -0.05681,-0.02024 l -0.03143,0.01206 -0.0656,-0.0608 c -0.03606,-0.03344 -0.07874,-0.0608 -0.0948,-0.0608 -0.01606,0 -0.004,-0.01747 0.02623,-0.03881 l 0.05543,-0.03882 v -0.07189 -0.07189 l -0.09159,-0.0077 -0.09158,-0.0077 -0.01011,-0.03081 -0.01011,-0.03081 0.06003,-0.02735 0.06003,-0.02735 0.03149,-0.08712 c 0.03092,-0.08554 0.05029,-0.234342 0.05961,-0.457956 l 0.0046,-0.112813 0.05612,-0.07133 c 0.03086,-0.03923 0.05612,-0.08296 0.05612,-0.09718 0,-0.01421 0.01897,-0.04679 0.04212,-0.07239 l 0.04212,-0.04655 -0.0064,-0.120199 -0.0064,-0.120199 0.08894,-0.0943 0.08893,-0.0943 5.72e-4,-0.09002 5.71e-4,-0.09002 0.14806,-0.18394 c 0.08143,-0.101167 0.161101,-0.224599 0.177039,-0.274295 0.03806,-0.118615 0.08517,-0.169698 0.187772,-0.203561 l 0.08426,-0.02781 v -0.04658 -0.04657 l 0.06858,-0.03787 c 0.03772,-0.02083 0.102238,-0.05443 0.143379,-0.07468 0.04115,-0.02025 0.134602,-0.07576 0.207677,-0.123361 0.07308,-0.0476 0.164918,-0.09982 0.204099,-0.116053 l 0.07124,-0.02951 0.02332,-0.06694 0.02332,-0.06694 0.134133,-0.102769 c 0.07377,-0.05653 0.198356,-0.137256 0.276849,-0.179406 0.0785,-0.04215 0.163792,-0.09771 0.189549,-0.123466 l 0.04686,-0.04683 0.122149,-0.01665 0.122148,-0.01665 0.13135,-0.07239 c 0.07224,-0.03982 0.212506,-0.0962 0.311698,-0.125306 0.09919,-0.0291 0.236456,-0.0736 0.305028,-0.09889 0.06858,-0.02529 0.236891,-0.06543 0.374041,-0.08921 l 0.24936,-0.04323 0.144837,-0.06336 0.144842,-0.06337 0.03337,-0.06451 c 0.01835,-0.03548 0.07537,-0.103787 0.126698,-0.151789 0.05132,-0.048 0.150666,-0.144989 0.220758,-0.215528 0.07009,-0.07054 0.167221,-0.14475 0.215849,-0.164915 0.04863,-0.02017 0.107798,-0.06625 0.131486,-0.102405 0.02372,-0.03616 0.06087,-0.06574 0.08261,-0.06574 h 0.03955 l -0.01543,-0.06132 -0.01537,-0.06134 0.04829,-0.02584 c 0.02657,-0.01421 0.06433,-0.01969 0.08392,-0.01217 l 0.03566,0.01368 0.05968,-0.05203 c 0.0328,-0.02862 0.09873,-0.07128 0.146448,-0.09481 l 0.08677,-0.04277 0.03572,-0.07481 c 0.01966,-0.04114 0.0428,-0.09049 0.05149,-0.109649 l 0.01577,-0.03484 0.130304,-0.03335 c 0.137401,-0.03516 0.212488,-0.07201 0.351193,-0.172325 l 0.08473,-0.06128 h 0.06764 0.06764 l 0.08664,-0.05879 c 0.04766,-0.03234 0.130566,-0.0665 0.184263,-0.07592 0.145105,-0.02545 0.434286,-0.115168 0.53617,-0.166334 l 0.08944,-0.04491 0.16014,-0.01278 0.160147,-0.01278 0.113548,-0.05023 c 0.06246,-0.02763 0.17457,-0.06634 0.249143,-0.08604 0.07457,-0.01969 0.21974,-0.06562 0.322602,-0.102064 0.102861,-0.03644 0.222809,-0.0755 0.26655,-0.08681 0.04378,-0.0113 0.118314,-0.04451 0.165707,-0.07381 l 0.08617,-0.05326 0.17093,0.0156 0.170936,0.0156 0.149614,-0.03203 c 0.08229,-0.01762 0.207226,-0.02994 0.277632,-0.02738 0.07041,0.0026 0.154517,-0.0051 0.186892,-0.01713 l 0.05887,-0.02178 0.05,0.03123 c 0.02749,0.01717 0.132201,0.03884 0.232673,0.04814 l 0.182674,0.01692 0.104445,0.04477 c 0.05744,0.02463 0.119679,0.06313 0.13831,0.08558 0.01863,0.02245 0.0432,0.04081 0.05463,0.04081 0.01143,0 0.04772,0.02525 0.08063,0.05611 0.100483,0.09415 0.174976,0.143382 0.216951,0.143382 0.022,0 0.117897,0.03924 0.213118,0.0872 l 0.173119,0.0872 0.08728,4.88e-4 0.08728,4.87e-4 0.09877,0.05594 0.09878,0.05594 0.01532,0.07456 c 0.02452,0.11927 0.06225,0.172122 0.273511,0.383382 l 0.199339,0.19934 v 0.04871 0.04871 l 0.03858,0.01481 c 0.0212,0.0081 0.05035,0.04862 0.06478,0.08994 0.0144,0.04132 0.03526,0.07514 0.04635,0.07514 0.01726,0 0.16709,0.189637 0.233319,0.295346 l 0.02143,0.03425 -0.03103,0.05803 -0.03103,0.05803 0.07924,0.100051 0.07924,0.10005 0.217112,-0.01314 c 0.119411,-0.0072 0.295662,-0.02829 0.391665,-0.0468 0.202671,-0.03908 0.58114,-0.105286 0.718216,-0.12564 l 0.09482,-0.01408 0.01377,-0.03585 0.01377,-0.03585 0.06006,0.01508 0.06006,0.01508 0.03709,-0.03077 c 0.0204,-0.01693 0.03709,-0.05235 0.03709,-0.07873 0,-0.02637 0.02869,-0.07663 0.06372,-0.111674 l 0.06373,-0.06372 0.08778,0.01647 0.08779,0.01647 0.03406,-0.02825 0.03406,-0.02825 -0.01966,-0.05318 -0.01966,-0.05318 0.01949,-0.07591 c 0.01069,-0.04175 0.02663,-0.09913 0.03538,-0.12752 l 0.01589,-0.05162 -0.03915,-0.03248 -0.03915,-0.03248 v -0.174839 c 0,-0.184295 -0.03892,-0.357904 -0.09262,-0.413071 l -0.03206,-0.03296 0.01543,-0.13123 0.01543,-0.13123 -0.06031,-0.04776 c -0.03315,-0.02627 -0.07751,-0.09106 -0.09851,-0.143974 l -0.03817,-0.09621 0.02617,-0.09799 0.02617,-0.098 -0.02972,-0.04761 -0.02972,-0.04761 0.178571,-0.188331 c 0.09821,-0.103583 0.188881,-0.188332 0.201487,-0.188332 0.01263,0 0.07878,-0.02805 0.147043,-0.06234 0.06826,-0.03429 0.13867,-0.06234 0.156454,-0.06234 0.04435,0 0.308309,0.122392 0.326128,0.151225 0.02263,0.03657 0.09031,0.02741 0.141819,-0.01921 l 0.04698,-0.04253 0.04812,0.03006 c 0.02646,0.01653 0.06922,0.03006 0.09499,0.03006 0.02577,0 0.07361,0.02082 0.106312,0.04627 l 0.05947,0.04627 0.152734,0.01696 0.152735,0.01696 0.06183,-0.02817 0.06183,-0.02817 0.104879,0.0535 c 0.05768,0.02943 0.179611,0.07659 0.270956,0.1048 l 0.166079,0.0513 0.08009,-0.04313 0.08009,-0.04313 0.0802,0.02796 c 0.04412,0.01538 0.139591,0.02796 0.212163,0.02796 h 0.131955 l 0.01606,0.02595 c 0.0088,0.01427 0.05717,0.05206 0.10745,0.08398 0.05029,0.03192 0.122269,0.0891 0.159986,0.12707 l 0.06857,0.06904 v 0.07889 c 0,0.09521 0.03829,0.138468 0.123435,0.139517 l 0.06358,8e-4 0.04498,0.06178 0.04498,0.06178 -0.01697,0.02746 -0.01697,0.02746 -0.08545,-0.01387 -0.08545,-0.01387 -0.05098,0.05097 -0.05098,0.05096 0.01212,0.06349 c 0.0067,0.03492 0.0011,0.09834 -0.01263,0.14094 -0.01366,0.0426 -0.02875,0.245766 -0.0336,0.451487 -0.0051,0.205721 -0.01555,0.418923 -0.02377,0.473781 -0.0082,0.05486 -0.02126,0.179897 -0.02903,0.277862 l -0.01412,0.178119 0.05543,0.01759 0.05543,0.01759 -0.01183,0.06188 c -0.0065,0.03404 -0.0034,0.09975 0.0071,0.146033 l 0.01897,0.08415 -0.05115,0.03395 -0.05115,0.03395 -0.0078,0.225801 c -0.004,0.124191 0.0017,0.302986 0.01349,0.397323 l 0.02126,0.171521 -0.02292,0.02879 -0.02292,0.02879 0.01697,0.07096 c 0.0093,0.03903 0.02589,0.08243 0.0368,0.09644 0.01091,0.01401 0.01869,0.154279 0.01726,0.311698 l -0.0029,0.286217 0.03789,0.08336 0.03789,0.08336 -0.018,0.09858 c -0.0099,0.05422 -0.01354,0.228597 -0.0081,0.387513 l 0.0099,0.288938 0.06176,0.0734 c 0.06462,0.0768 0.07826,0.142832 0.03789,0.183229 -0.03675,0.03673 -0.03303,0.201397 0.0098,0.434931 0.02137,0.116575 0.03212,0.228786 0.02383,0.249359 -0.02617,0.06526 -0.0348,0.28147 -0.01234,0.309594 l 0.0216,0.02704 0.0017,0.311699 c 0.0023,0.373188 0.02257,0.600754 0.06543,0.735615 0.01743,0.0549 0.0392,0.19451 0.04846,0.31033 0.0092,0.11583 0.02652,0.22243 0.0384,0.23689 0.03069,0.0373 0.05366,0.43719 0.03017,0.52514 l -0.01966,0.0734 0.02435,0.12531 c 0.01337,0.0689 0.02257,0.17911 0.02046,0.24485 l -0.004,0.11954 0.03623,0.0553 0.03618,0.0553 -0.0068,0.16185 -0.0068,0.16185 0.03057,0.11221 c 0.0168,0.0617 0.04292,0.20759 0.05793,0.32417 l 0.02732,0.21195 -0.02349,0.13715 c -0.01292,0.0754 -0.02657,0.15398 -0.03035,0.17455 -0.004,0.0206 0.0023,0.0909 0.01372,0.15617 l 0.02057,0.11877 -0.0288,0.11438 -0.0288,0.11438 0.02903,0.035 0.02903,0.035 -0.01543,0.0773 -0.01549,0.0773 0.04246,0.0718 0.04246,0.0718 -0.03006,0.0832 c -0.04377,0.12102 -0.0376,0.17386 0.0324,0.27701 l 0.0625,0.0921 -0.02269,0.0424 -0.02269,0.0424 0.01023,0.29909 c 0.0057,0.16449 0.01566,0.33275 0.02223,0.37389 0.01126,0.0704 0.0388,0.55947 0.04075,0.72314 4.74e-4,0.0412 -0.01217,0.20385 -0.02806,0.36157 l -0.02892,0.28676 0.01269,0.18313 0.01269,0.18313 0.04115,0.0455 0.04115,0.0455 -0.02772,0.0518 c -0.01526,0.0285 -0.03692,0.1512 -0.04812,0.27268 -0.0112,0.12148 -0.02703,0.23162 -0.03515,0.24476 -0.02846,0.046 -0.01857,0.37189 0.01754,0.57829 l 0.0364,0.20829 -0.02337,0.0614 c -0.03543,0.0932 -0.028,0.21495 0.01703,0.27921 l 0.04035,0.0576 -0.01829,0.22847 c -0.01732,0.21678 -0.03943,0.61941 -0.03995,0.72719 -9.1e-5,0.0274 0.01103,0.10938 0.02475,0.18211 0.01377,0.0727 0.01914,0.14747 0.012,0.16607 -0.0071,0.0186 0.0051,0.0689 0.02732,0.11174 l 0.04029,0.0779 -0.0496,0.0697 -0.0496,0.0696 0.03675,0.0708 0.03675,0.0708 2.86e-4,0.13921 c 1.89e-4,0.0766 0.0023,0.29631 0.0046,0.48831 0.0023,0.19201 -0.0034,0.55431 -0.01286,0.80511 l -0.01703,0.45601 -0.07301,0.10612 -0.07301,0.10612 0.02383,0.0426 c 0.01309,0.0234 0.0412,0.0426 0.06241,0.0426 h 0.03858 l -0.01572,0.18079 c -0.0086,0.0994 -0.0268,0.2425 -0.04035,0.31793 -0.01354,0.0754 -0.03046,0.19886 -0.03755,0.27429 -0.0071,0.0754 -0.02343,0.17643 -0.03629,0.22442 -0.01286,0.048 -0.02817,0.149 -0.03395,0.22443 -0.01126,0.14587 -0.06742,0.3465 -0.143608,0.51283 -0.02555,0.0558 -0.04646,0.12869 -0.04652,0.16208 -2.8e-5,0.0334 -0.03223,0.12242 -0.07154,0.19785 l -0.07149,0.13714 -0.01755,0.3117 -0.01754,0.3117 -0.03749,0.0791 c -0.02063,0.0435 -0.03492,0.0996 -0.03172,0.12468 0.0034,0.0251 -5.71e-4,0.0624 -0.0085,0.083 -0.02029,0.0532 -0.04389,0.16724 -0.06443,0.3117 -0.0098,0.0686 -0.02594,0.13784 -0.03595,0.15392 -0.01,0.0161 -0.03046,0.089 -0.04537,0.16209 -0.01492,0.0731 -0.0372,0.1823 -0.04955,0.24276 l -0.02246,0.10993 -0.09976,0.13213 c -0.05486,0.0727 -0.09976,0.13766 -0.09976,0.14441 0,0.007 -0.03366,0.0622 -0.07481,0.12313 -0.04115,0.061 -0.07501,0.12044 -0.07526,0.13217 -4.69e-4,0.0228 -0.09231,0.16712 -0.236319,0.37147 -0.08751,0.12418 -0.107645,0.15793 -0.244258,0.40935 -0.03829,0.0704 -0.08384,0.13353 -0.101261,0.14022 -0.01743,0.007 -0.09832,0.0913 -0.179771,0.18796 l -0.148099,0.17581 -0.124675,0.0636 c -0.06858,0.035 -0.1864,0.10332 -0.26183,0.15183 -0.07543,0.0485 -0.194778,0.11753 -0.265219,0.15338 -0.07044,0.0358 -0.158403,0.10123 -0.19547,0.14529 l -0.06739,0.0801 h -0.07929 -0.07928 l -0.120788,0.0998 c -0.122332,0.10109 -0.312687,0.19941 -0.386059,0.19941 -0.03583,0 -0.200779,0.0712 -0.379259,0.16381 -0.0797,0.0413 -0.287478,0.11266 -0.314663,0.10802 -0.05865,-0.01 -0.106639,0.008 -0.160152,0.0614 -0.06964,0.069 -0.107799,0.0817 -0.308864,0.10295 l -0.149619,0.0158 -0.129367,0.0608 -0.129372,0.0608 h -0.120674 -0.120674 l -0.05126,0.0359 -0.05126,0.0359 -0.08249,-0.013 -0.0825,-0.013 -0.102472,0.0371 c -0.05635,0.0204 -0.152449,0.0443 -0.213534,0.053 -0.06108,0.009 -0.147574,0.0385 -0.192207,0.0661 l -0.08116,0.0502 -0.131955,0.003 c -0.148923,0.003 -0.289039,0.0522 -0.310749,0.10875 l -0.01457,0.0379 -0.06541,-0.0142 -0.06541,-0.0142 -0.09975,0.0558 -0.09974,0.0558 -0.226821,5.7e-4 -0.226822,5.8e-4 -0.03503,0.0278 c -0.04275,0.0339 -0.137328,0.0572 -0.334237,0.0821 l -0.149614,0.019 -0.05589,-0.0247 -0.05589,-0.0247 -0.09923,0.0447 -0.09923,0.0447 -0.108707,-0.0305 -0.108707,-0.0305 -0.142448,0.0264 -0.142453,0.0263 -0.104924,-0.0354 -0.10493,-0.0354 -0.324168,0.0137 c -0.178291,0.007 -0.369051,0.0177 -0.423908,0.0226 -0.18436,0.0166 -1.021118,0.025 -1.14705,0.0115 z m 1.009901,-0.85941 c 0.048,-0.002 0.0987,-0.01 0.112662,-0.0187 0.01394,-0.009 0.112153,-0.006 0.218203,0.006 l 0.192818,0.0216 0.07974,-0.0335 0.07974,-0.0336 0.05503,0.0361 0.05503,0.0361 0.17069,-0.0136 c 0.157169,-0.0126 0.405278,-0.0253 0.956164,-0.0491 0.21026,-0.009 0.394129,-0.0364 0.585993,-0.087 0.05486,-0.0145 0.141921,-0.0266 0.193469,-0.0269 l 0.09372,-5.6e-4 0.103273,-0.0748 c 0.05681,-0.0412 0.128994,-0.0748 0.160437,-0.0748 0.03143,0 0.097,-0.0235 0.145671,-0.0522 l 0.08849,-0.0522 0.131121,-0.006 c 0.07211,-0.003 0.164781,-0.0206 0.205928,-0.0382 0.04115,-0.0175 0.09725,-0.0414 0.12468,-0.0532 0.02743,-0.0117 0.0667,-0.0189 0.08727,-0.0161 0.0593,0.008 0.379864,-0.0749 0.500772,-0.12977 l 0.11016,-0.05 0.137144,-0.002 0.13715,-0.002 0.09974,-0.0386 c 0.05486,-0.0213 0.183903,-0.0527 0.286764,-0.0698 0.229741,-0.0384 0.454334,-0.10436 0.557926,-0.16394 0.04286,-0.0247 0.128435,-0.0528 0.19015,-0.0626 0.119188,-0.0188 0.189932,-0.0487 0.244394,-0.10315 0.0184,-0.0184 0.05717,-0.0335 0.08615,-0.0335 0.08752,0 0.260476,-0.0973 0.373372,-0.21004 0.05858,-0.0585 0.168216,-0.13862 0.243646,-0.17804 0.07543,-0.0394 0.1611,-0.0889 0.190366,-0.10987 0.02926,-0.021 0.07801,-0.055 0.108307,-0.0756 0.03029,-0.0206 0.07928,-0.0586 0.108862,-0.0845 0.0296,-0.0259 0.104278,-0.0795 0.165993,-0.11918 0.06171,-0.0397 0.200047,-0.16435 0.307405,-0.27709 l 0.19519,-0.20499 0.05652,-0.12527 c 0.03109,-0.0689 0.07336,-0.14208 0.09393,-0.16266 0.03823,-0.0382 0.145271,-0.21125 0.199808,-0.323 0.01674,-0.0343 0.08416,-0.12784 0.149837,-0.2079 l 0.119417,-0.14557 v -0.10396 c 0,-0.14444 0.03823,-0.26304 0.109101,-0.33864 l 0.06021,-0.0642 0.01503,-0.16208 c 0.0408,-0.43942 0.05812,-0.56534 0.08445,-0.61389 0.01577,-0.029 0.02343,-0.0581 0.01697,-0.0645 -0.0064,-0.006 0.01206,-0.078 0.04103,-0.15913 l 0.05269,-0.14747 -0.0023,-0.18615 -0.0023,-0.18616 0.05241,-0.0558 0.0524,-0.0558 -0.01383,-0.0528 -0.01383,-0.0528 0.04909,-0.0832 0.04909,-0.0832 -0.01623,-0.0647 -0.01623,-0.0647 0.04012,-0.10024 c 0.02206,-0.0551 0.04012,-0.13441 0.04012,-0.17618 0,-0.0418 0.01149,-0.0974 0.02555,-0.1237 0.01406,-0.0263 0.03578,-0.13493 0.04818,-0.24148 0.01246,-0.10656 0.03389,-0.24984 0.0476,-0.31841 0.03377,-0.16855 0.07748,-0.80304 0.09147,-1.32816 0.0063,-0.23676 0.02057,-0.47241 0.03166,-0.52366 l 0.02017,-0.0932 -0.02069,-0.18703 c -0.01137,-0.10285 -0.02634,-0.2319 -0.03332,-0.28675 -0.0208,-0.1648 -0.04126,-0.46721 -0.0388,-0.57353 0.0057,-0.23577 5.72e-4,-0.70341 -0.01091,-1.09718 -0.01852,-0.62053 -0.02012,-1.29961 -0.004,-1.68317 0.0078,-0.18515 0.02069,-0.51056 0.02875,-0.72314 l 0.01469,-0.38651 -0.02034,-0.0727 c -0.0112,-0.04 -0.01326,-0.1281 -0.0046,-0.1958 l 0.01577,-0.12309 -0.02703,-0.11848 c -0.01486,-0.0652 -0.03909,-0.13415 -0.05383,-0.1533 -0.01474,-0.0191 -0.04,-0.0945 -0.05606,-0.16745 l -0.02926,-0.13264 0.02543,-0.0475 0.02543,-0.0475 -0.0029,-0.1814 c -0.0017,-0.0998 0.0046,-0.2099 0.01332,-0.24472 l 0.01635,-0.0633 -0.02463,-0.0648 -0.02463,-0.0649 0.02492,-0.17976 0.02492,-0.17976 -0.03646,-0.0412 c -0.08383,-0.0947 -0.128527,-0.65153 -0.06827,-0.8505 l 0.02612,-0.0862 -0.06699,-0.0699 -0.06699,-0.0699 0.03057,-0.0845 0.03057,-0.0845 -0.01635,-0.10214 -0.01634,-0.10214 0.02977,-0.0359 0.02978,-0.0359 -0.01497,-0.39438 c -0.0082,-0.21691 -0.0252,-0.45049 -0.03772,-0.51906 -0.06216,-0.33991 -0.08213,-0.51556 -0.07888,-0.69355 0.0017,-0.10716 -0.0068,-0.21418 -0.01943,-0.23782 -0.01263,-0.0237 -0.0352,-0.15255 -0.05018,-0.28645 l -0.02715,-0.24345 -0.03783,-0.0577 -0.03783,-0.0577 0.02566,-0.06743 c 0.01412,-0.03709 0.01989,-0.09191 0.01286,-0.121812 -0.007,-0.0299 -0.0034,-0.112922 0.0086,-0.184479 l 0.02137,-0.130105 -0.07021,-0.10606 -0.07022,-0.106061 0.03618,-0.05518 0.03618,-0.05518 -0.06056,-0.106611 -0.06055,-0.106612 0.02949,-0.03555 0.02949,-0.03555 0.01583,-0.189891 0.01577,-0.18989 -0.0224,-0.0597 -0.0224,-0.0597 0.02795,-0.08463 0.02795,-0.08463 -0.03812,-0.05822 -0.03817,-0.05822 0.01389,-0.053 0.01389,-0.053 -0.04126,-0.06297 -0.04126,-0.06297 0.02154,-0.160719 0.02154,-0.160719 -0.0216,-0.16909 c -0.02314,-0.181474 -0.02606,-0.255164 -0.01703,-0.430918 l 0.0058,-0.112211 -0.04446,-0.09367 -0.04446,-0.09367 0.03063,-0.03692 0.03063,-0.03692 -0.01926,-0.04395 c -0.01057,-0.02417 -0.02126,-0.09675 -0.02372,-0.161281 -0.0023,-0.06453 -0.01772,-0.13324 -0.03383,-0.152689 -0.01612,-0.01945 -0.02446,-0.05081 -0.01852,-0.06969 0.0059,-0.01888 0.01749,-0.08202 0.02566,-0.140308 l 0.01486,-0.105977 h -0.04583 -0.04583 l -0.156318,0.193253 -0.156323,0.193253 -0.122269,0.08264 c -0.06725,0.04546 -0.135247,0.10717 -0.151105,0.137147 -0.01583,0.02997 -0.06365,0.09939 -0.106216,0.154246 -0.0737,0.09499 -0.105176,0.152875 -0.200779,0.369248 l -0.04195,0.09495 0.02892,0.03487 c 0.03863,0.04655 0.01023,0.08692 -0.06121,0.08692 h -0.05797 l -0.08394,0.09645 c -0.04618,0.05305 -0.108438,0.12907 -0.138378,0.168935 l -0.05446,0.07248 -0.113873,0.03046 c -0.06264,0.01675 -0.113879,0.04228 -0.113879,0.05673 0,0.05835 0.07706,0.169204 0.163375,0.235041 l 0.09151,0.06979 0.110261,0.01243 0.110268,0.01243 0.04452,0.05662 c 0.05854,0.07442 0.202242,0.160919 0.26754,0.161036 l 0.05189,9.4e-5 0.076,0.105977 c 0.04178,0.05829 0.0942,0.15967 0.116439,0.225294 l 0.04046,0.119317 v 0.145699 0.145699 l -0.03766,0.09018 -0.03766,0.09018 -0.105702,0.06618 c -0.05813,0.0364 -0.136424,0.09173 -0.173982,0.122964 -0.06604,0.05493 -0.290255,0.134364 -0.384401,0.136198 -0.02532,4.9e-4 -0.0797,0.02855 -0.12084,0.06234 l -0.07481,0.06144 0.06642,0.05611 c 0.03652,0.03086 0.07461,0.08404 0.08462,0.118187 0.02189,0.07477 0.245458,0.299485 0.297926,0.299485 h 0.03726 v 0.049 0.049 l -0.04823,0.0258 c -0.02652,0.0142 -0.07089,0.0258 -0.09857,0.0258 -0.02766,0 -0.07694,0.0121 -0.109445,0.0269 l -0.0591,0.0269 -0.05561,0.18901 c -0.03057,0.10396 -0.077,0.21622 -0.103146,0.24945 l -0.04755,0.0604 0.01154,0.11388 c 0.0063,0.0626 0.02303,0.12776 0.03715,0.14474 l 0.0256,0.0309 -0.06308,0.075 c -0.06565,0.078 -0.08092,0.1301 -0.03812,0.1301 0.04829,0 0.02423,0.0712 -0.03983,0.11782 l -0.06475,0.0472 -0.03475,0.13394 -0.03475,0.13394 -0.0856,0.0705 -0.08559,0.0706 -0.0176,0.08 -0.01754,0.08 -0.07163,0.0669 -0.07163,0.0669 v 0.0725 c 0,0.0399 -0.01646,0.0943 -0.03663,0.1209 -0.02012,0.0266 -0.03697,0.0748 -0.03737,0.10715 l -5.71e-4,0.0587 -0.06234,0.0741 -0.06234,0.0741 v 0.0782 0.0782 l -0.0627,0.0633 c -0.03446,0.0348 -0.11429,0.11377 -0.177348,0.17549 -0.06306,0.0617 -0.138641,0.13596 -0.167958,0.16498 -0.02932,0.029 -0.09113,0.10001 -0.137356,0.15775 -0.04623,0.0577 -0.113553,0.11803 -0.149614,0.13397 -0.03606,0.0159 -0.09882,0.0594 -0.139464,0.0966 -0.04063,0.0372 -0.122018,0.0924 -0.180834,0.12268 -0.05882,0.0303 -0.134773,0.0915 -0.168799,0.1361 l -0.06186,0.0811 -0.11888,0.0439 c -0.06538,0.0242 -0.130092,0.0522 -0.143808,0.0624 -0.01372,0.0101 -0.114708,0.054 -0.224421,0.0975 -0.109719,0.0435 -0.238765,0.10017 -0.286764,0.12598 -0.114811,0.0617 -0.341169,0.12265 -0.44175,0.11892 -0.04412,-0.002 -0.09517,0.009 -0.113507,0.0247 l -0.03332,0.0277 -0.05418,-0.0142 -0.05418,-0.0142 -0.07592,0.0639 -0.07593,0.0639 -0.354845,0.004 c -0.195167,0.002 -0.467061,0.006 -0.604205,0.007 l -0.249361,0.003 -0.07931,0.0595 -0.0793,0.0595 -0.05784,-0.0658 -0.05784,-0.0659 -0.149614,-0.024 c -0.08229,-0.0132 -0.239388,-0.0419 -0.349107,-0.0638 -0.109713,-0.0219 -0.238759,-0.046 -0.286758,-0.0537 l -0.08728,-0.014 -0.06608,-0.078 -0.06609,-0.078 -0.0781,0.0574 -0.0781,0.0575 -0.142585,-0.0498 -0.142579,-0.0498 -0.274294,-0.0172 -0.274294,-0.0172 -0.08728,-0.043 c -0.048,-0.0237 -0.117348,-0.0502 -0.154106,-0.0591 -0.03675,-0.009 -0.08164,-0.0301 -0.09974,-0.0472 -0.05635,-0.0533 -0.198527,-0.0932 -0.438103,-0.1228 l -0.230645,-0.0285 -0.0757,-0.0676 -0.07571,-0.0676 -0.154963,-0.0322 -0.154969,-0.0321 -0.08727,-0.0674 c -0.048,-0.0371 -0.120943,-0.0738 -0.162084,-0.0815 -0.207968,-0.0392 -0.390236,-0.0894 -0.422828,-0.11646 -0.02006,-0.0166 -0.118257,-0.044 -0.218249,-0.0608 l -0.181811,-0.0306 -0.01383,-0.11859 c -0.0076,-0.0652 -0.02652,-0.12645 -0.04206,-0.13606 -0.02269,-0.014 -0.07108,-0.10653 -0.09342,-0.17854 -0.02229,-0.0718 -0.07865,-0.1489 -0.123926,-0.16953 l -0.05578,-0.0255 -0.05212,-0.11085 -0.05212,-0.11085 -0.09943,-0.0822 c -0.05469,-0.0452 -0.127846,-0.13445 -0.162581,-0.19828 -0.03475,-0.0638 -0.08609,-0.1368 -0.114113,-0.16216 l -0.05098,-0.0461 v -0.057 c 0,-0.0314 -0.01034,-0.0634 -0.02303,-0.0712 -0.01263,-0.008 -0.03012,-0.0466 -0.0388,-0.0862 -0.0087,-0.0396 -0.03629,-0.0905 -0.06138,-0.11319 l -0.0456,-0.0412 0.04463,-0.0924 0.04463,-0.0924 -0.0023,-0.3031 -0.0023,-0.3031 0.03606,-0.0435 0.03612,-0.0435 0.0023,-0.30164 0.0023,-0.30163 0.104678,-0.19949 c 0.05757,-0.109714 0.165187,-0.272246 0.239148,-0.361178 l 0.134464,-0.161695 0.07263,-0.01882 c 0.03995,-0.01035 0.155689,-0.08058 0.257207,-0.156063 0.101524,-0.07548 0.215443,-0.151282 0.253155,-0.168441 0.03772,-0.01716 0.06858,-0.04008 0.06858,-0.05093 0,-0.01085 0.04766,-0.04217 0.105976,-0.06958 0.05828,-0.02741 0.162083,-0.08248 0.230655,-0.122364 0.06857,-0.03988 0.14274,-0.07316 0.16481,-0.07394 0.02206,-8e-4 0.100615,-0.03364 0.174548,-0.07301 0.07393,-0.03937 0.173696,-0.07935 0.221701,-0.08884 0.146139,-0.02889 0.216248,-0.06448 0.249532,-0.126669 0.03915,-0.07313 0.0891,-0.09431 0.148065,-0.06275 l 0.04486,0.02402 0.08105,-0.02325 c 0.04457,-0.01278 0.108781,-0.04142 0.142681,-0.06363 l 0.06163,-0.04038 0.05675,0.01423 0.05675,0.01424 0.162038,-0.122667 c 0.08912,-0.06747 0.168822,-0.140341 0.177114,-0.161943 l 0.01509,-0.03928 -0.109107,-0.05128 c -0.06001,-0.02821 -0.128275,-0.07247 -0.151706,-0.09836 l -0.04257,-0.04707 -0.06886,0.01377 -0.06886,0.01377 -0.03532,-0.05043 -0.03532,-0.05043 -0.198487,-0.05424 c -0.24116,-0.0659 -0.516049,-0.104561 -0.738332,-0.103847 l -0.16581,5.38e-4 -0.0524,-0.0488 c -0.0288,-0.02684 -0.05241,-0.06056 -0.05241,-0.07492 0,-0.01437 -0.03532,-0.0753 -0.07848,-0.135406 l -0.07848,-0.109285 -0.0011,-0.119215 -0.0011,-0.119215 0.05606,-0.145994 c 0.08115,-0.2114 0.117274,-0.255861 0.281118,-0.345934 l 0.147037,-0.08083 0.01726,-0.05025 c 0.0095,-0.02764 0.01509,-0.05849 0.0124,-0.06856 -0.0029,-0.01007 0.01754,-0.05495 0.04486,-0.09974 l 0.04966,-0.08143 9.7e-5,-0.0921 9.1e-5,-0.0921 0.05395,-0.03778 c 0.02966,-0.02078 0.06243,-0.03253 0.07281,-0.02611 0.01823,0.01125 0.110868,-0.09072 0.127338,-0.140131 0.0046,-0.01328 0.0697,-0.03043 0.145042,-0.03812 0.07535,-0.0077 0.162861,-0.02655 0.194475,-0.0419 l 0.05748,-0.02792 0.07967,0.03282 c 0.04383,0.01805 0.12336,0.03992 0.176771,0.04859 l 0.0971,0.01577 0.01846,0.0374 c 0.02835,0.05741 0.06449,0.147782 0.124726,0.311699 0.03023,0.08229 0.06684,0.172058 0.08134,0.199487 0.139699,0.264286 0.148037,0.274454 0.359114,0.437859 l 0.129498,0.100256 0.143345,0.03733 0.14335,0.03733 0.07126,-0.01565 0.07126,-0.01565 0.08424,0.03997 0.08424,0.03998 0.116846,-0.03967 0.116845,-0.03967 0.0671,0.06429 c 0.07718,0.07394 0.131435,0.08129 0.178788,0.02424 l 0.03326,-0.04006 0.108513,0.01223 0.108507,0.01223 0.05538,0.05202 c 0.03046,0.02861 0.07621,0.113304 0.101666,0.188208 l 0.04629,0.136188 -0.01269,0.177122 -0.01269,0.177123 0.04663,0.02494 c 0.0256,0.01372 0.04658,0.04284 0.04658,0.06471 v 0.03977 l -0.115588,-0.01303 -0.115582,-0.01303 -0.08391,0.03505 c -0.04612,0.01928 -0.0839,0.04966 -0.0839,0.0675 v 0.03245 l 0.193252,0.0037 0.193253,0.0037 0.05629,0.06488 0.05629,0.06488 0.05589,-0.01814 c 0.03075,-0.01 0.123241,-0.02022 0.205528,-0.02278 l 0.149614,-0.0046 0.08728,0.05478 c 0.048,0.03013 0.142425,0.07911 0.209831,0.10885 l 0.122549,0.05407 0.126806,0.134766 0.126806,0.134766 0.174553,0.09328 0.174548,0.09328 0.219135,0.03086 c 0.12052,0.01697 0.260784,0.02536 0.311698,0.01864 0.05092,-0.0067 0.199167,9.72e-4 0.329459,0.01713 0.317824,0.0394 0.401975,0.04579 0.777622,0.05904 l 0.321458,0.01134 0.03755,0.03118 0.03755,0.03117 0.194127,-8e-4 0.194121,-8e-4 0.06036,-0.03114 c 0.0332,-0.01713 0.09122,-0.05992 0.128937,-0.0951 0.104907,-0.09784 0.08465,-0.166487 -0.03086,-0.104658 l -0.04629,0.02478 -0.05383,-0.08714 c -0.06299,-0.101933 -0.140173,-0.161487 -0.211157,-0.162945 -0.02783,-5.71e-4 -0.09248,-0.03809 -0.143717,-0.08338 l -0.09316,-0.08234 -0.06268,-0.141752 c -0.07067,-0.159787 -0.075,-0.209106 -0.03115,-0.35495 l 0.0308,-0.102407 0.0786,-0.06607 0.0786,-0.06607 0.02195,-0.09334 0.02195,-0.09334 0.07401,-0.0084 c 0.04069,-0.0046 0.0881,-0.02009 0.105318,-0.03433 l 0.03132,-0.02589 0.09968,0.01594 0.09968,0.01594 0.08097,-0.034 c 0.04452,-0.0187 0.142687,-0.0975 0.218123,-0.175123 0.269505,-0.277323 0.397334,-0.389952 0.442584,-0.389952 0.05275,0 0.180811,-0.0809 0.180811,-0.114225 0,-0.01577 0.02097,-0.05543 0.04658,-0.08813 0.0256,-0.03271 0.0774,-0.118606 0.115091,-0.190884 0.03772,-0.07228 0.116154,-0.184489 0.174348,-0.249359 0.0582,-0.06487 0.11421,-0.144587 0.124468,-0.177151 0.01023,-0.03256 0.05675,-0.09264 0.103267,-0.133496 0.04652,-0.04086 0.08461,-0.08564 0.08461,-0.09952 0,-0.01388 0.04349,-0.06602 0.09659,-0.115862 l 0.09659,-0.09063 0.01497,-0.08104 0.01497,-0.08104 -0.230033,3.67e-4 -0.230033,3.68e-4 -0.06234,0.03151 -0.06234,0.03151 -0.014,0.09903 c -0.01629,0.115122 -0.07206,0.229711 -0.143174,0.294071 l -0.05006,0.04531 -0.188475,0.0045 -0.188475,0.0045 -0.05549,-0.05527 c -0.03052,-0.0304 -0.06748,-0.09211 -0.08214,-0.137146 l -0.02663,-0.08188 -0.09956,0.0039 c -0.05475,0.0021 -0.178097,0.01109 -0.2741,0.0199 l -0.174553,0.01601 -0.09974,0.05156 c -0.140116,0.07243 -0.436001,0.170085 -0.515951,0.170293 -0.03692,9.3e-5 -0.07417,0.01161 -0.0828,0.02559 -0.0086,0.01397 -0.05698,0.02423 -0.10745,0.02278 -0.05046,-0.0014 -0.15126,0.01272 -0.223993,0.03148 l -0.132246,0.0341 -0.0627,0.08011 -0.0627,0.08011 -0.07935,-0.0035 c -0.04366,-0.0019 -0.141894,0.005 -0.218335,0.01553 l -0.138979,0.01906 -0.07682,-0.03972 c -0.04223,-0.02185 -0.103141,-0.07407 -0.135316,-0.116044 -0.03217,-0.04198 -0.08935,-0.113857 -0.127069,-0.159736 -0.03772,-0.04588 -0.06857,-0.104953 -0.06857,-0.131273 0,-0.05445 -0.167096,-0.320978 -0.245109,-0.390967 l -0.05178,-0.04643 0.01354,-0.0677 0.01354,-0.06771 -0.101998,-0.206554 c -0.05612,-0.113605 -0.101998,-0.219644 -0.101998,-0.235642 0,-0.016 -0.03086,-0.06303 -0.06857,-0.104517 -0.03772,-0.04148 -0.100175,-0.123418 -0.138802,-0.182071 l -0.07022,-0.106643 -0.08483,-0.03544 c -0.04663,-0.01949 -0.114908,-0.03544 -0.151678,-0.03544 h -0.06694 l -0.08476,-0.08728 c -0.04663,-0.048 -0.09947,-0.08727 -0.117456,-0.08727 -0.03898,0 -0.269043,-0.120607 -0.401312,-0.210366 -0.05183,-0.03516 -0.109925,-0.06393 -0.129138,-0.06393 -0.0192,0 -0.069,-0.02518 -0.110622,-0.05596 l -0.07569,-0.05596 -0.403318,-0.0056 -0.403323,-0.0056 -0.08727,0.02936 c -0.048,0.01614 -0.0985,0.03678 -0.112216,0.04584 -0.01372,0.0091 -0.103484,0.03051 -0.199488,0.04766 -0.096,0.01714 -0.231176,0.04631 -0.300382,0.06481 l -0.125835,0.03363 -0.05926,0.06308 -0.05926,0.06308 -0.04612,-0.04172 -0.04612,-0.04172 -0.08758,0.04176 c -0.04818,0.02297 -0.110376,0.04176 -0.138241,0.04176 -0.02789,0 -0.07321,0.01206 -0.100764,0.02681 -0.02755,0.01475 -0.125,0.02693 -0.216546,0.02708 l -0.16645,2.73e-4 -0.07624,0.04405 c -0.04195,0.02422 -0.114868,0.05164 -0.162083,0.06092 -0.04721,0.0093 -0.170011,0.07263 -0.272872,0.140768 l -0.187017,0.123893 -0.09157,5.7e-5 -0.09157,5.7e-5 -0.178491,0.121372 -0.178485,0.121371 -0.04783,0.07861 -0.04778,0.07861 -0.05726,-0.01437 -0.05727,-0.01437 -0.0464,0.05128 c -0.02555,0.02821 -0.05718,0.05128 -0.07033,0.05128 -0.01314,0 -0.08716,0.05366 -0.164449,0.119234 -0.07729,0.06558 -0.182675,0.150354 -0.234176,0.188389 l -0.09364,0.06915 0.01514,0.06023 0.01509,0.06023 -0.03995,0.03992 -0.03995,0.03992 v 0.09491 0.09491 l -0.0356,0.02953 -0.0356,0.02954 -0.01697,0.166773 -0.01697,0.166774 -0.08834,0.09219 -0.08834,0.09219 -0.139613,0.01428 c -0.07679,0.0079 -0.240497,0.02664 -0.3638,0.04174 l -0.224181,0.02746 -0.0328,0.04686 -0.0328,0.04686 h -0.109325 c -0.06013,0 -0.116262,0.01122 -0.124737,0.02493 -0.0085,0.01372 -0.04703,0.02493 -0.08569,0.02493 -0.08028,0 -0.117731,0.03562 -0.130109,0.123757 l -0.0086,0.06142 -0.087,0.01769 -0.087,0.01769 -0.01274,-0.01932 c -0.0124,-0.01883 -0.144837,-0.08227 -0.229479,-0.109954 -0.06802,-0.02225 -0.370589,0.07626 -0.506093,0.164771 -0.06875,0.0449 -0.147437,0.09368 -0.174868,0.108385 -0.02743,0.01471 -0.07232,0.0391 -0.09974,0.05421 -0.02743,0.0151 -0.09204,0.03422 -0.143574,0.04246 l -0.09369,0.015 -0.04006,0.06117 -0.04006,0.06117 h -0.09312 -0.09312 l -0.16537,0.118446 -0.165364,0.118445 -4.74e-4,0.07977 -4.69e-4,0.07977 -0.08728,0.06657 -0.08728,0.06657 v 0.0477 c 0,0.06146 -0.05646,0.08263 -0.124001,0.04649 l -0.05309,-0.02841 -0.108805,0.118502 -0.108804,0.118503 -0.0086,0.108467 -0.0086,0.108467 0.02394,0.02394 0.02394,0.02394 -0.02366,0.02252 c -0.01303,0.01238 -0.04583,0.02651 -0.07294,0.03139 -0.02709,0.0049 -0.06089,0.03122 -0.07511,0.05853 -0.01423,0.02731 -0.04475,0.0777 -0.06779,0.11199 -0.02309,0.03429 -0.04943,0.118446 -0.05856,0.18702 -0.0091,0.06857 -0.03275,0.155935 -0.0524,0.194138 l -0.03578,0.06946 0.05418,0.09637 0.05418,0.09637 -0.01251,0.08353 -0.01252,0.08353 0.046,0.06514 0.046,0.06514 -0.02229,0.136953 -0.02229,0.136953 0.05098,0.184415 c 0.05481,0.19844 0.05717,0.223057 0.0312,0.32779 l -0.01697,0.0686 h 0.04029 0.04029 v 0.0603 c 0,0.0332 -0.0116,0.0641 -0.02583,0.0689 -0.03766,0.0126 -0.09648,0.19278 -0.09775,0.29954 l -0.0011,0.092 0.02789,0.0172 0.02789,0.0172 -0.01532,0.11156 c -0.0084,0.0614 -0.03932,0.15429 -0.06866,0.20652 l -0.05338,0.095 0.03217,0.20787 c 0.01772,0.11433 0.05309,0.24817 0.07865,0.29743 l 0.04646,0.0896 0.0034,0.18451 0.0034,0.18452 0.04172,0.0746 0.04172,0.0746 0.07911,0.0227 0.07911,0.0227 -5.72e-4,0.0525 c -3.31e-4,0.0289 -0.0112,0.0974 -0.02417,0.15224 -0.01297,0.0549 -0.01754,0.11938 -0.01017,0.14338 l 0.01337,0.0436 0.04195,4e-5 c 0.04355,4e-5 0.228975,0.18055 0.228975,0.22293 0,0.0317 0.156421,0.0604 0.219564,0.0404 0.02715,-0.009 0.05509,-0.0377 0.06215,-0.0646 0.02086,-0.0798 0.192064,-0.11844 0.192064,-0.0433 0,0.0139 -0.05612,0.0797 -0.12468,0.14618 -0.134287,0.13011 -0.149032,0.16469 -0.08104,0.19005 0.024,0.009 0.0583,0.0367 0.07622,0.0616 l 0.03257,0.0453 h 0.06093 0.06093 v 0.0568 0.0568 l 0.09975,-0.006 c 0.100535,-0.006 0.12112,0.0102 0.07425,0.0571 l -0.02549,0.0255 0.05218,0.11798 0.05218,0.11798 0.06058,0.0276 c 0.03332,0.0152 0.06058,0.0367 0.06058,0.0478 0,0.0111 0.05555,0.0442 0.123486,0.0734 l 0.123486,0.0531 0.0392,0.0598 c 0.02155,0.0329 0.05,0.0598 0.06331,0.0598 0.01326,0 0.07754,0.0406 0.142808,0.0903 l 0.118657,0.0903 0.04515,0.0905 0.04515,0.0905 -0.01526,0.0873 c -0.0084,0.048 -0.02149,0.14178 -0.02903,0.20838 l -0.01372,0.12111 -0.07413,0.0662 -0.07413,0.0662 0.0176,0.15572 0.0176,0.15572 0.06533,0.0318 0.06533,0.0318 -0.0023,0.0576 -0.0023,0.0576 0.07703,0.0333 c 0.04235,0.0183 0.09609,0.0391 0.119366,0.0463 l 0.04235,0.013 0.02869,0.10726 c 0.01577,0.059 0.0412,0.12248 0.05646,0.14109 0.01526,0.0186 0.04006,0.0579 0.05509,0.0873 l 0.02737,0.0534 0.110771,-0.006 0.11077,-0.006 -0.04,0.0312 c -0.022,0.0171 -0.0476,0.055 -0.05686,0.0842 l -0.01686,0.0531 0.122652,0.10269 0.122651,0.10269 h 0.05121 c 0.02817,0 0.05721,0.01 0.06459,0.0217 0.01966,0.0318 0.312143,0.20271 0.346884,0.20271 0.01629,0 0.04343,0.0221 0.06027,0.0491 0.01686,0.027 0.06725,0.068 0.111976,0.0911 0.04475,0.0231 0.139853,0.0896 0.211397,0.14785 l 0.130069,0.10587 0.153055,0.0178 0.153054,0.0178 0.04035,0.0471 c 0.02217,0.0259 0.0603,0.0471 0.08468,0.0471 0.0244,0 0.06553,0.0212 0.09143,0.0471 l 0.04709,0.0471 0.156283,0.0181 c 0.08596,0.01 0.193441,0.0337 0.238862,0.0526 0.04543,0.019 0.11696,0.0345 0.158987,0.0345 0.042,0 0.115376,0.0163 0.163003,0.0362 l 0.0866,0.0362 0.05286,0.0896 0.05286,0.0896 0.04052,-0.0346 c 0.02229,-0.019 0.08955,-0.0536 0.149431,-0.0768 l 0.108891,-0.0422 0.05827,0.0382 0.05828,0.0382 0.05834,-0.0222 0.05834,-0.0222 0.07697,0.0324 c 0.04235,0.0178 0.08459,0.0447 0.09391,0.0598 0.0093,0.0151 0.04858,0.0274 0.08721,0.0274 h 0.07028 l 0.03103,-0.0374 c 0.0396,-0.0477 0.109804,-0.048 0.149185,-5.7e-4 l 0.03063,0.0369 0.05126,-0.0274 0.05126,-0.0274 0.126904,0.0277 c 0.0698,0.0152 0.177405,0.0264 0.239119,0.0247 0.06171,-0.002 0.153712,6.9e-4 0.204431,0.005 0.05075,0.004 0.118045,-0.004 0.149614,-0.0198 0.03155,-0.0154 0.122463,-0.0473 0.20199,-0.071 l 0.144591,-0.0431 0.07259,0.0537 0.07258,0.0537 0.06958,-0.001 c 0.03829,-5.6e-4 0.114468,-0.0173 0.16933,-0.037 l 0.09974,-0.0359 0.187017,-6.9e-4 0.187024,-6.8e-4 0.122405,-0.0371 c 0.06733,-0.0204 0.174605,-0.0371 0.2384,-0.0371 h 0.115988 l 0.15826,-0.062 c 0.08705,-0.0341 0.180131,-0.0818 0.206854,-0.10598 l 0.04858,-0.044 0.153214,-4.8e-4 0.153209,-4.7e-4 0.117079,-0.0556 c 0.06439,-0.0306 0.127504,-0.0556 0.140242,-0.0556 0.01274,0 0.07653,-0.0298 0.14175,-0.0663 0.06522,-0.0365 0.15921,-0.075 0.20886,-0.0857 0.149768,-0.0323 0.411199,-0.11145 0.464312,-0.14064 0.157472,-0.0865 0.316698,-0.1562 0.356971,-0.1562 h 0.04618 l 0.08804,-0.13091 c 0.0484,-0.072 0.133601,-0.22629 0.189275,-0.34287 l 0.101232,-0.21195 0.09808,-0.0951 0.09808,-0.0951 0.214586,-0.0573 c 0.118023,-0.0315 0.242657,-0.0757 0.276969,-0.0982 0.03429,-0.0225 0.07413,-0.0409 0.08849,-0.0409 h 0.02612 l -0.01515,0.0947 -0.01514,0.0947 0.04023,0.0334 0.04023,0.0334 0.05075,-0.0459 0.05075,-0.0459 -0.016,-0.0947 -0.016,-0.0947 h 0.06285 0.06285 l 0.01835,-0.0561 c 0.02737,-0.0838 0.01251,-0.22391 -0.02857,-0.26933 -0.05435,-0.0601 -0.04418,-0.0975 0.03566,-0.13112 0.03955,-0.0166 0.148614,-0.11207 0.242326,-0.21208 0.09371,-0.1 0.206208,-0.20397 0.249994,-0.23103 l 0.07961,-0.0492 0.106673,0.0171 c 0.05867,0.009 0.145402,0.0433 0.192732,0.0755 0.04732,0.0321 0.104941,0.0584 0.128023,0.0584 h 0.04195 l 0.06933,0.1059 c 0.03812,0.0582 0.07561,0.14521 0.08328,0.19325 l 0.01394,0.0874 0.0452,0.0321 0.0452,0.0321 -0.0017,0.0925 c -0.0011,0.0509 0.0064,0.15071 0.01612,0.22181 l 0.01771,0.12926 -0.02577,0.074 -0.02577,0.074 0.04143,0.0586 0.04143,0.0586 0.0046,0.4457 0.0046,0.44571 0.02377,0.0655 c 0.01309,0.036 0.03835,0.11597 0.05612,0.17769 0.01777,0.0617 0.04315,0.12657 0.0564,0.14412 l 0.02412,0.0319 -0.02857,0.0628 c -0.04263,0.0936 -0.03549,0.13124 0.03795,0.19927 l 0.06652,0.0617 -0.06998,0.073 -0.06997,0.073 0.01406,0.10461 c 0.0077,0.0575 0.02332,0.1114 0.03463,0.11971 0.01132,0.008 0.02229,0.0375 0.02434,0.065 0.0023,0.0274 0.02343,0.13964 0.04755,0.24936 0.05675,0.25833 0.05332,0.3803 -0.02035,0.7356 l -0.0336,0.16209 0.0075,0.16208 c 0.004,0.0892 0.02423,0.22941 0.04458,0.3117 0.02034,0.0823 0.0372,0.22513 0.03737,0.31743 l 3.77e-4,0.16781 -0.04018,0.1004 -0.04018,0.1004 0.04303,0.0907 0.04303,0.0907 -0.02783,0.0928 c -0.03572,0.11914 -0.03578,0.35393 -1.6e-4,0.43211 l 0.02766,0.0607 -0.03709,0.12645 -0.03709,0.12646 0.02783,0.009 0.02783,0.009 -0.03503,0.0728 -0.03503,0.0728 -0.0066,0.29923 c -0.0034,0.16457 -0.01492,0.36095 -0.02509,0.43638 -0.01017,0.0754 -0.01646,0.14575 -0.014,0.15627 0.0023,0.0105 -0.03006,0.0876 -0.07231,0.17122 l -0.07677,0.15209 0.02972,0.0718 0.02972,0.0718 -0.04035,0.0616 c -0.02217,0.0339 -0.04052,0.0985 -0.04075,0.14353 -2e-4,0.045 -0.01783,0.13212 -0.0392,0.19349 -0.02137,0.0614 -0.04263,0.16236 -0.04721,0.22442 -0.02235,0.3014 -0.08452,0.58785 -0.1469,0.67691 l -0.04063,0.058 v 0.0908 0.0908 l -0.05583,0.071 c -0.06031,0.0767 -0.16829,0.32345 -0.168478,0.38504 -6.3e-5,0.0208 -0.02818,0.0791 -0.06245,0.12959 -0.06885,0.10132 -0.07667,0.14489 -0.03372,0.18786 l 0.02863,0.0286 -0.07852,0.0894 c -0.0432,0.0492 -0.07851,0.11108 -0.07851,0.13756 0,0.0265 -0.03366,0.0865 -0.07481,0.13333 -0.04115,0.0469 -0.07481,0.0994 -0.07481,0.11682 0,0.0265 -0.236468,0.29839 -0.529273,0.60863 -0.03806,0.0404 -0.06918,0.0815 -0.06918,0.0915 0,0.01 -0.03983,0.0428 -0.08853,0.0729 -0.04869,0.0301 -0.145078,0.10298 -0.214187,0.16198 -0.06912,0.059 -0.153203,0.11417 -0.186863,0.12262 -0.103015,0.0258 -0.491183,0.2172 -0.564693,0.27838 -0.03812,0.0317 -0.111055,0.065 -0.162084,0.0739 -0.05103,0.009 -0.116342,0.031 -0.145145,0.049 l -0.05241,0.0327 -0.09941,-0.0133 -0.09942,-0.0133 -0.07886,0.0408 c -0.04337,0.0224 -0.07887,0.0329 -0.07887,0.0233 0,-0.01 -0.02526,0.006 -0.05612,0.0335 l -0.05612,0.051 -0.156157,0.0154 -0.156152,0.0154 -0.105673,0.0544 -0.105672,0.0545 -0.374035,0.002 -0.374041,0.002 -0.07953,0.0481 -0.07954,0.0481 -0.09502,-0.0302 c -0.188492,-0.06 -0.454647,-0.0398 -0.645242,0.0489 -0.124161,0.0578 -0.226993,0.0599 -0.333215,0.007 l -0.08069,-0.0402 -0.147226,0.0106 -0.147225,0.0106 -0.06028,0.0566 -0.06028,0.0566 -0.135362,-0.0169 -0.135355,-0.0169 -0.229913,0.0279 -0.229907,0.0279 -0.02989,-0.0186 c -0.01646,-0.0102 -0.19819,-0.0219 -0.403911,-0.026 l -0.374035,-0.007 -0.149614,-0.0407 c -0.16053,-0.0436 -0.307818,-0.0454 -0.484777,-0.006 l -0.110736,0.0247 -0.06982,-0.0516 c -0.0384,-0.0284 -0.103821,-0.0584 -0.14538,-0.0667 -0.04155,-0.008 -0.08159,-0.0249 -0.08897,-0.0368 -0.0074,-0.0119 -0.0356,-0.0217 -0.0627,-0.0217 -0.02709,0 -0.133995,-0.0449 -0.237536,-0.0998 -0.103541,-0.0549 -0.215918,-0.0997 -0.249721,-0.0997 -0.126457,0 -0.287678,-0.11101 -0.349055,-0.24035 -0.02109,-0.0445 -0.06547,-0.0986 -0.09858,-0.12033 -0.03309,-0.0217 -0.06019,-0.0516 -0.06019,-0.0663 0,-0.0286 -0.174503,-0.23879 -0.330403,-0.39806 -0.05143,-0.0526 -0.09351,-0.10663 -0.09351,-0.12019 0,-0.0135 -0.02806,-0.0549 -0.06234,-0.0919 l -0.06234,-0.0673 v -0.0595 c 0,-0.068 -0.105358,-0.28753 -0.16917,-0.35248 -0.02354,-0.0239 -0.05853,-0.0737 -0.07778,-0.11062 -0.01926,-0.0369 -0.08377,-0.10785 -0.143379,-0.15768 l -0.108388,-0.0906 v -0.0473 -0.0473 h -0.038 -0.038 l -0.0228,-0.0599 c -0.01251,-0.033 -0.03469,-0.0673 -0.04926,-0.0763 -0.01457,-0.009 -0.02646,-0.0476 -0.02646,-0.0858 v -0.0695 l -0.05212,-0.0472 -0.05212,-0.0472 0.01509,-0.0944 0.01509,-0.0944 -0.03486,-0.0681 c -0.0192,-0.0374 -0.04309,-0.15068 -0.05309,-0.25166 l -0.01817,-0.1836 -0.04709,-0.0471 -0.04703,-0.047 h -0.07039 c -0.03869,0 -0.141619,0.0345 -0.228684,0.0767 -0.08706,0.0422 -0.176011,0.0757 -0.19767,0.0745 -0.02166,-10e-4 -0.06182,-0.003 -0.08925,-0.005 -0.02743,-0.002 -0.111587,0.0105 -0.187023,0.0266 -0.07543,0.0161 -0.20447,0.027 -0.286758,0.0242 -0.227296,-0.008 -0.251967,-0.003 -0.334723,0.0669 l -0.07672,0.0646 v 0.0568 0.0568 l -0.122086,0.0507 -0.122086,0.0507 -0.02755,0.12837 c -0.01514,0.0706 -0.02755,0.18382 -0.02755,0.2516 v 0.12324 l 0.04989,0.0311 c 0.0496,0.031 0.07005,0.11889 0.02766,0.11889 -0.04412,0 -0.04886,0.11557 -0.01189,0.28676 0.02074,0.096 0.0408,0.2531 0.04457,0.34911 l 0.0068,0.17455 0.04109,0.0748 c 0.02257,0.0411 0.0412,0.086 0.04132,0.0997 1.31e-4,0.0137 0.02497,0.0642 0.05526,0.11221 0.03023,0.048 0.06915,0.15363 0.08645,0.23473 l 0.03143,0.14746 0.08468,0.0698 0.08467,0.0698 0.01543,0.0965 0.01543,0.0965 0.06271,0.0286 c 0.03452,0.0157 0.06271,0.0397 0.06271,0.0533 0,0.0478 0.2137,0.3361 0.361571,0.48774 0.08229,0.0844 0.222552,0.22902 0.311698,0.3214 0.233319,0.2418 0.279363,0.28162 0.349101,0.30193 0.0768,0.0223 0.212197,0.12084 0.311698,0.22671 0.07869,0.0837 0.240542,0.18463 0.296125,0.18463 0.018,0 0.05309,0.0225 0.07791,0.0499 0.0248,0.0274 0.05929,0.0499 0.0766,0.0499 0.01732,0 0.0352,0.009 0.03977,0.0207 0.01314,0.0327 0.316184,0.17878 0.370966,0.17878 0.0272,0 0.06895,0.0109 0.09276,0.0243 0.09276,0.0521 0.315836,0.15025 0.341335,0.15025 0.0148,0 0.06874,0.0225 0.11992,0.0499 0.0512,0.0274 0.107119,0.0499 0.124314,0.0499 0.0172,3e-5 0.09537,0.0387 0.173731,0.086 0.07836,0.0473 0.18496,0.093 0.236891,0.10175 0.137493,0.0231 0.332591,0.0862 0.418582,0.13552 0.04115,0.0236 0.209465,0.0731 0.374041,0.10999 0.164575,0.0369 0.344112,0.0879 0.398974,0.11329 0.179691,0.0832 0.273254,0.11301 0.330648,0.10549 0.03109,-0.004 0.09844,0.007 0.149688,0.0242 0.05126,0.0174 0.118943,0.0285 0.15042,0.0249 l 0.05723,-0.007 0.05223,0.0664 0.05223,0.0664 0.09003,-0.0168 c 0.04949,-0.009 0.104913,-0.0292 0.123103,-0.0442 l 0.03309,-0.0273 0.01966,0.0318 c 0.0108,0.0175 0.0464,0.047 0.07914,0.0655 l 0.05947,0.0337 0.112211,-0.0151 c 0.06171,-0.008 0.151483,-0.0164 0.199487,-0.018 z m 1.670705,-23.51906 -0.06234,-0.0356 -0.06632,0.01204 -0.06632,0.01204 -0.01394,-0.03633 c -0.0077,-0.01998 -0.0077,-0.0527 2.3e-5,-0.07271 l 0.01394,-0.03639 -0.08332,-0.05079 c -0.04583,-0.02793 -0.0931,-0.0541 -0.105049,-0.05813 -0.01194,-0.0041 -0.02457,-0.06299 -0.02812,-0.131012 -0.0034,-0.06802 -0.0078,-0.131172 -0.0094,-0.140339 -0.0017,-0.0092 -0.04235,-0.04094 -0.09033,-0.07061 -0.048,-0.02967 -0.08728,-0.06505 -0.08728,-0.07862 0,-0.02984 0.06317,-0.09592 0.09173,-0.09595 0.01126,-1.3e-5 0.02303,-0.09091 0.02612,-0.201989 l 0.0057,-0.201966 0.0692,-0.136914 c 0.03806,-0.0753 0.134076,-0.213465 0.213363,-0.307028 l 0.144163,-0.170116 0.07775,-0.0271 c 0.111051,-0.03871 0.277449,-0.03351 0.44051,0.01378 l 0.140985,0.04089 0.08728,0.0916 c 0.04801,0.05038 0.126829,0.135775 0.175182,0.18977 l 0.08791,0.09817 -0.0064,0.12468 c -0.0034,0.06857 -0.01326,0.189086 -0.0216,0.267805 l -0.0152,0.143127 0.0584,0.02268 c 0.03212,0.01247 0.09143,0.05755 0.131795,0.100162 l 0.07339,0.07748 -0.02354,0.02316 -0.02354,0.02316 -0.105312,-0.0283 -0.105313,-0.0283 -0.06622,0.06108 c -0.07559,0.06972 -0.134601,0.193371 -0.134601,0.282033 v 0.06047 l -0.03789,0.01454 c -0.02086,0.008 -0.06084,0.05343 -0.08889,0.100966 l -0.05098,0.08643 -0.10601,0.05132 -0.106004,0.05131 -0.13551,-0.0025 -0.135504,-0.0025 z m 3.033866,7.4797 c -0.0091,-0.009 -0.02412,-0.009 -0.03326,0 -0.0091,0.009 -0.0017,0.0166 0.01663,0.0166 0.01829,0 0.02577,-0.007 0.01663,-0.0166 z m -1.730362,-0.18653 c 0.02938,-0.0157 0.07229,-0.0519 0.09532,-0.0803 l 0.04189,-0.0517 0.19019,0.006 0.190189,0.006 0.142991,-0.0593 c 0.07865,-0.0326 0.187503,-0.0673 0.241897,-0.0771 0.0544,-0.01 0.127332,-0.0377 0.162083,-0.0621 0.03475,-0.0244 0.11888,-0.0687 0.186949,-0.0986 0.06808,-0.0298 0.141014,-0.0691 0.162084,-0.0873 0.02109,-0.0182 0.06996,-0.0406 0.108633,-0.0498 0.03869,-0.009 0.107107,-0.0528 0.152071,-0.0969 0.04498,-0.0441 0.133635,-0.10676 0.197047,-0.13932 0.06341,-0.0326 0.121332,-0.0782 0.128715,-0.10151 0.0074,-0.0233 0.100272,-0.13385 0.206419,-0.24575 0.106147,-0.11191 0.228536,-0.24577 0.27198,-0.29748 0.04343,-0.0517 0.119182,-0.14026 0.168313,-0.19678 l 0.08933,-0.10276 v -0.0982 -0.0982 l 0.03663,-0.0484 c 0.02012,-0.0266 0.03697,-0.073 0.03737,-0.10304 4.34e-4,-0.0301 0.012,-0.0616 0.02577,-0.0701 0.01371,-0.008 0.0376,-0.0656 0.05303,-0.12697 l 0.02806,-0.11155 0.04332,-0.0232 0.04332,-0.0232 0.01377,-0.10263 0.01377,-0.10263 0.04275,-0.0312 0.04275,-0.0312 -0.01623,-0.0977 c -0.01977,-0.11885 -0.02006,-0.14514 -0.0034,-0.27228 0.0073,-0.0549 0.01229,-0.11938 0.01114,-0.14338 -0.01646,-0.33942 0.0051,-0.525577 0.06951,-0.59753 l 0.03817,-0.04271 -0.01595,-0.04155 -0.01594,-0.04155 -0.102907,0.0138 c -0.05658,0.0076 -0.199464,0.0038 -0.317475,-0.0084 -0.118017,-0.01221 -0.349227,-0.02444 -0.513808,-0.02718 l -0.299228,-0.005 -0.04252,-0.03615 -0.04252,-0.03615 -0.551246,-0.0095 -0.55124,-0.0095 -0.05401,-0.0289 c -0.07222,-0.03866 -0.52038,-0.07814 -0.822734,-0.07249 l -0.243994,0.0046 -0.08312,-0.05136 c -0.04572,-0.02825 -0.107038,-0.05137 -0.136275,-0.05137 -0.02926,0 -0.05315,-0.01054 -0.05315,-0.02342 0,-0.01288 -0.04206,-0.07395 -0.09351,-0.135707 -0.05143,-0.06176 -0.110336,-0.135535 -0.130909,-0.16395 l -0.03738,-0.05166 -0.08728,-0.01264 c -0.048,-0.007 -0.164078,-0.02244 -0.25795,-0.03443 -0.09387,-0.01198 -0.18308,-0.0342 -0.198241,-0.04936 l -0.02755,-0.02756 h -0.111868 c -0.06153,0 -0.1826,-0.01774 -0.269054,-0.03942 l -0.157186,-0.03942 -0.08373,0.02763 c -0.04606,0.0152 -0.0996,0.02154 -0.119017,0.01409 l -0.03532,-0.01355 -0.09319,0.09052 c -0.05126,0.04978 -0.0932,0.09914 -0.0932,0.10968 0,0.01054 -0.08306,0.02694 -0.184583,0.03646 l -0.184583,0.0173 -0.07101,-0.03511 -0.07101,-0.03511 -0.112211,0.0037 c -0.06171,0.002 -0.136121,0.01665 -0.165347,0.0325 -0.09144,0.0496 -0.283466,0.108016 -0.307091,0.09342 -0.0124,-0.0077 -0.0711,0.0017 -0.130407,0.0209 -0.05931,0.01917 -0.16134,0.04759 -0.226747,0.06315 -0.144705,0.03441 -0.471678,0.184741 -0.514773,0.236664 -0.0172,0.02073 -0.08978,0.0547 -0.161261,0.07548 l -0.129978,0.03778 -0.05812,0.06186 -0.05812,0.06186 -0.06707,-0.01341 -0.06708,-0.01341 -0.147951,0.07975 c -0.435429,0.234713 -0.521283,0.323993 -0.557183,0.579423 l -0.01834,0.13072 -0.06673,0.097 c -0.0799,0.11614 -0.08193,0.14942 -0.01686,0.27705 0.05905,0.11582 0.06216,0.15203 0.01463,0.17027 l -0.03526,0.0135 -0.01754,0.16364 -0.01754,0.16365 0.04086,0.0624 0.04086,0.0624 h 0.07423 0.07424 v 0.0374 0.0374 h -0.0484 c -0.02663,0 -0.05578,0.0119 -0.06478,0.0265 l -0.0164,0.0265 0.03983,0.044 c 0.02189,0.0242 0.03983,0.0567 0.03983,0.0722 0,0.0155 0.03926,0.0595 0.08728,0.0978 l 0.08728,0.0696 v 0.0509 0.0509 l 0.08696,0.0922 c 0.04783,0.0507 0.137939,0.11616 0.200242,0.14545 0.06231,0.0293 0.127863,0.074 0.145676,0.0995 0.03343,0.0477 0.203734,0.17197 0.235708,0.17197 0.0099,0 0.05932,0.0281 0.109782,0.0623 0.05046,0.0343 0.105478,0.0623 0.122268,0.0623 0.0168,0 0.04823,0.0151 0.0699,0.0335 0.09523,0.081 0.688653,0.26629 0.743704,0.23227 0.02657,-0.0164 0.09314,0.0365 0.113217,0.09 0.0091,0.0242 0.04389,0.0544 0.07736,0.0672 l 0.06085,0.0231 0.01709,0.0537 0.01703,0.0537 0.08482,-0.01 c 0.04663,-0.005 0.08482,-0.002 0.08482,0.008 0,0.01 0.03646,0.0367 0.08104,0.0594 l 0.08104,0.0412 0.185783,0.01 c 0.102187,0.005 0.218335,0.0167 0.258116,0.0255 l 0.07233,0.0159 0.107873,-0.0302 0.107879,-0.0302 0.08285,0.0415 0.08286,0.0415 0.281455,0.0415 0.281455,0.0415 0.04675,-0.0292 0.04675,-0.0292 0.01206,0.03 c 0.0066,0.0165 0.06655,0.0513 0.133126,0.0774 0.06658,0.0261 0.139379,0.0631 0.16177,0.0823 l 0.04069,0.0348 0.0656,-0.0165 0.0656,-0.0165 0.03852,0.032 0.03852,0.032 0.445345,0.002 c 0.244937,10e-4 0.453757,0.0104 0.464043,0.0207 0.02434,0.0244 0.02892,0.0239 0.09203,-0.01 z m 3.454707,-4.954279 0.05779,-0.04447 -0.04943,-0.06096 -0.04943,-0.06096 -0.06446,0.06045 c -0.03543,0.03325 -0.06446,0.08094 -0.06446,0.105978 v 0.04552 l 0.05612,-5.56e-4 c 0.03086,-3.02e-4 0.08211,-0.02056 0.113902,-0.04502 z m 2.014222,-4.361841 c -0.0144,-0.197796 -0.0164,-0.26943 -0.01143,-0.411442 0.0017,-0.04458 2.8e-4,-0.174259 -0.0029,-0.28819 l -0.0057,-0.207148 -0.04726,-0.02951 c -0.026,-0.01623 -0.04726,-0.04859 -0.04726,-0.07191 0,-0.06809 -0.0468,-0.07899 -0.190755,-0.04445 l -0.135035,0.03239 -0.02909,-0.02911 c -0.016,-0.01601 -0.06837,-0.02911 -0.116342,-0.02911 -0.04795,0 -0.177577,-0.01274 -0.288004,-0.02832 l -0.200785,-0.02832 -0.107072,0.02957 -0.107073,0.02958 -0.02572,0.06732 -0.02572,0.06732 0.02823,0.144209 c 0.01554,0.07932 0.02257,0.163474 0.01566,0.187019 -0.01623,0.05519 -0.04263,0.653739 -0.02886,0.653739 0.0058,0 0.03835,-0.01061 0.07243,-0.02357 0.14886,-0.05659 0.583609,-0.02742 0.75762,0.05084 0.05814,0.02614 0.136687,0.04805 0.174553,0.04867 0.03783,6.29e-4 0.102507,0.01654 0.143654,0.03538 0.04115,0.01884 0.100941,0.03516 0.13288,0.03628 l 0.05807,0.002 z m -16.946271,4.943537 c 0,-0.0069 0.0057,-0.01247 0.01246,-0.01247 0.0069,0 0.01246,0.0056 0.01246,0.01247 0,0.0069 -0.0057,0.01247 -0.01246,0.01247 -0.0069,0 -0.01246,-0.0056 -0.01246,-0.01247 z"
       id="path4"
       inkscape:label="orange hand drawn g" />
  </g>
</svg>
