<?xml version="1.0" standalone="no"?>
<!DOCTYPE svg PUBLIC "-//W3C//DTD SVG 20010904//EN"
 "http://www.w3.org/TR/2001/REC-SVG-20010904/DTD/svg10.dtd">
<svg version="1.0" xmlns="http://www.w3.org/2000/svg"
 width="1024.000000pt" height="1024.000000pt" viewBox="0 0 1024.000000 1024.000000"
 preserveAspectRatio="xMidYMid meet">
<metadata>
Created by potrace 1.14, written by Peter Selinger 2001-2017
</metadata>
<g transform="translate(0.000000,1024.000000) scale(0.100000,-0.100000)"
fill="#000000" stroke="none">
<path d="M6432 9343 l3 -88 85 -5 85 -5 3 -72 4 -73 -98 0 -97 0 7 80 6 80
-90 0 -90 0 0 -80 0 -80 -85 0 -85 0 0 -155 0 -155 -570 0 -570 0 0 -85 0 -85
-95 0 -95 0 0 -80 0 -80 -190 0 -190 0 0 -80 0 -80 -170 0 -170 0 0 -86 0 -87
-90 6 -90 7 0 -91 0 -90 -82 3 -83 3 -3 83 -3 82 -89 0 -90 0 0 -85 0 -85 -95
0 -95 0 0 -164 c0 -191 5 -183 -106 -171 l-64 7 0 -96 0 -96 -85 0 -85 0 0
-380 0 -380 -605 0 -605 0 0 -200 0 -200 85 0 85 0 0 -310 0 -310 85 0 85 0 0
-165 0 -165 160 0 160 0 0 -85 0 -85 90 0 90 0 0 -70 0 -70 -84 0 c-97 0 -96
2 -96 -112 l0 -68 -85 0 -85 0 0 -85 0 -84 -77 -3 -78 -3 -3 -87 -3 -88 -79 0
-80 0 0 -85 0 -85 -90 0 -90 0 0 -85 0 -85 -165 0 -165 0 0 -85 0 -85 -85 0
-85 0 0 -90 0 -90 -90 0 -90 0 0 -90 0 -90 -90 0 -90 0 0 -255 0 -255 90 0 90
0 0 -90 0 -90 90 0 c86 0 89 -1 88 -22 0 -13 0 -49 1 -80 l1 -58 250 0 250 0
0 80 0 80 340 0 340 0 0 90 c0 87 1 90 23 90 12 0 221 2 464 3 l441 2 7 -75 7
-75 126 0 127 0 0 -80 0 -80 -152 -3 -153 -3 0 -78 0 -78 -31 -7 c-17 -3 -58
-6 -90 -6 l-59 0 0 -155 0 -155 175 0 175 0 0 155 0 154 98 3 97 3 3 79 3 78
412 -2 c227 -1 469 -2 540 -1 l127 1 0 85 0 85 -452 1 c-249 1 -456 1 -460 0
-5 0 -8 37 -8 84 l0 85 -87 0 c-135 0 -133 -1 -133 86 l0 74 390 0 390 0 0 34
c0 18 3 54 6 80 l7 46 88 0 89 0 0 265 0 265 -53 0 -53 0 1 590 0 590 68 0 67
0 0 -82 0 -83 52 1 c29 1 68 -1 86 -3 l32 -5 0 -79 0 -79 408 2 407 3 3 78 c2
51 7 77 15 78 7 0 74 0 150 0 l137 0 0 85 0 84 95 0 95 0 0 85 0 85 105 0 105
0 0 309 0 308 38 7 c20 3 49 6 65 6 l27 0 0 -75 0 -74 98 -3 97 -3 0 -77 0
-78 150 -2 150 -3 -4 -157 -3 -158 86 0 86 0 0 -170 0 -170 80 0 80 0 1 -142
c1 -79 5 -258 9 -398 5 -217 7 -234 9 -115 3 145 16 289 21 245 2 -14 3 -32 2
-40 0 -12 2 -11 12 3 20 26 26 21 26 -23 0 -22 3 -40 8 -40 8 0 6 130 -3 138
-3 3 -5 -7 -5 -21 0 -15 -5 -27 -11 -27 -6 0 -9 7 -5 15 3 8 3 22 0 30 -5 12
-10 13 -20 4 -11 -9 -14 -8 -14 5 0 13 12 16 65 16 l65 0 0 -330 0 -330 -75 0
c-65 0 -75 -2 -76 -17 0 -10 0 -165 1 -345 l1 -328 -79 0 -79 0 -7 -31 c-3
-17 -7 -118 -8 -223 -1 -125 -4 -170 -8 -131 -6 52 -7 54 -9 20 -1 -22 -6 -49
-10 -59 -7 -19 -8 -19 -13 2 -4 12 -2 20 3 16 5 -3 9 13 9 35 l0 41 -65 0 -66
0 3 -72 3 -72 72 -3 c62 -4 72 -2 76 14 4 14 5 13 6 -4 1 -22 -2 -23 -84 -23
l-85 0 0 -85 0 -85 -80 0 -80 0 0 -235 0 -235 70 0 70 0 0 -90 0 -90 -72 0
-73 0 3 -160 3 -160 -91 0 -90 0 -1 -187 c-1 -104 -4 -176 -6 -160 -4 27 -5
27 -84 27 l-79 0 0 -74 c0 -69 2 -75 23 -79 12 -2 -31 -5 -95 -6 l-118 -1 0
-83 0 -83 -295 4 -295 4 -1 -28 c0 -16 -1 -49 -3 -74 -1 -25 -3 -87 -4 -139
l-2 -94 -180 5 c-129 4 -180 2 -181 -6 -1 -6 0 -44 1 -85 l2 -74 -144 6 c-78
4 -482 7 -895 7 l-753 0 0 74 0 75 -52 6 c-29 4 -147 5 -263 3 l-210 -3 -3 78
-3 77 -89 0 -90 0 0 80 0 80 -90 0 -90 0 0 85 0 85 40 0 41 0 -2 240 -1 240
-54 0 -55 0 3 -240 3 -240 -163 0 -163 0 3 -88 3 -87 172 -3 173 -2 0 -74 0
-74 -31 -6 c-17 -3 -58 -6 -90 -6 l-59 0 0 -85 0 -85 270 0 270 0 0 -57 c0
-32 3 -68 6 -81 l6 -22 249 0 248 0 3 -83 3 -82 896 -3 897 -2 6 22 c3 13 6
51 6 86 l0 62 185 0 185 0 0 86 0 85 85 -3 85 -3 0 83 0 82 470 0 470 0 0 49
c0 27 3 63 6 80 l7 31 88 0 89 0 0 85 0 85 90 0 90 0 0 85 0 85 -60 0 -60 0 0
160 0 160 60 0 60 0 0 80 0 80 -55 0 -55 0 0 324 0 323 31 7 c17 3 42 6 55 6
l24 0 0 155 0 155 80 0 80 0 0 244 0 244 31 6 c17 3 53 6 80 6 l49 0 0 340 0
340 170 0 170 0 0 80 0 80 79 0 78 0 7 53 c3 28 6 68 6 87 l0 35 71 -2 c39 -1
77 1 85 4 12 4 14 82 14 519 l0 514 -85 0 -85 0 0 760 0 760 -90 0 -90 0 0 49
c0 26 3 69 6 95 l7 46 78 0 79 0 0 135 0 135 90 0 90 0 0 150 0 149 78 3 77 3
3 168 2 167 -85 0 -85 0 0 85 0 85 85 0 85 0 0 160 0 160 -57 0 c-109 0 -102
-10 -105 168 l-3 156 -48 -3 c-26 -1 -66 0 -88 4 l-39 7 0 79 0 79 -250 0
-250 0 0 80 0 80 -245 0 -245 0 0 80 0 80 -175 0 -175 0 0 85 0 85 -90 0 -91
0 3 -87z m-10 -335 l3 -83 93 -3 92 -3 0 86 0 85 170 0 170 0 0 -80 0 -80 -87
0 -88 0 4 -87 c1 -49 5 -90 6 -92 2 -2 41 1 87 5 l83 9 5 81 5 81 244 2 c210
2 243 1 233 -12 -7 -7 -9 -17 -6 -20 4 -3 -5 -9 -18 -12 -18 -5 -28 -17 -37
-44 -15 -51 -14 -59 7 -64 9 -3 -14 -5 -53 -6 l-70 -1 3 -90 3 -91 87 3 87 3
3 88 3 87 249 0 250 0 0 -166 0 -167 -79 6 -79 6 -11 -44 c-6 -25 -16 -45 -21
-45 -5 0 -13 -15 -18 -32 -8 -32 -10 -33 -63 -33 l-54 0 -3 73 -3 72 81 0 80
0 2 63 c1 34 2 73 2 86 1 24 1 24 -108 22 -61 -1 -114 -5 -119 -8 -4 -3 -7
-39 -6 -81 l2 -77 -26 1 c-15 0 -112 1 -217 2 l-190 2 0 80 0 80 -157 2 c-137
1 -338 6 -353 7 -3 1 -5 35 -5 76 l0 75 -170 6 c-93 3 -171 6 -172 7 -1 1 -5
71 -9 155 l-7 152 86 0 86 0 3 -82z m6 -404 l172 -6 0 -83 c0 -66 -3 -84 -16
-89 -8 -3 -12 -2 -9 3 3 5 1 13 -5 16 -6 4 -10 -5 -8 -23 1 -19 7 -28 15 -25
8 3 15 -9 19 -36 l7 -41 63 0 c49 0 64 -3 64 -15 0 -11 19 -15 88 -17 l87 -3
-3 -35 c-3 -39 23 -80 47 -72 8 2 18 -3 23 -12 5 -9 18 -16 28 -16 10 0 42 -5
70 -11 l50 -11 0 -239 0 -239 80 0 80 0 0 85 0 85 49 0 c27 0 63 -3 80 -6 l32
-7 -3 -86 -3 -86 -77 -3 -77 -3 -3 -97 -3 -97 -83 0 -83 0 3 -95 3 -95 83 -3
82 -3 0 99 0 99 165 9 165 9 0 -205 0 -205 -62 3 c-114 5 -108 -1 -108 102 l0
90 -80 0 -80 0 0 -95 0 -95 85 0 85 0 0 -50 0 -50 48 0 c26 0 62 4 80 9 l32
10 0 -135 c0 -74 -4 -134 -8 -134 -9 0 -120 121 -135 146 -6 10 -32 14 -97 14
l-90 0 0 95 0 94 -82 3 -83 3 4 93 3 93 -88 -3 -88 -3 0 -90 c-1 -90 -1 -90
-26 -89 -14 1 -49 2 -77 3 l-53 1 0 85 0 85 -38 0 c-31 0 -45 7 -73 36 -18 20
-44 40 -56 45 -21 8 -23 15 -23 74 l0 65 -90 0 -90 0 0 -80 0 -79 93 -3 92 -3
-2 -105 c-2 -81 -6 -107 -18 -116 -10 -8 -15 -29 -15 -68 0 -51 -4 -61 -30
-88 -16 -16 -30 -34 -30 -39 0 -5 -18 -9 -40 -9 l-39 0 -3 -92 -3 -93 -90 -3
c-49 -2 -141 0 -202 3 l-113 7 0 94 0 94 -100 0 -100 0 0 68 c0 110 10 171 30
177 9 3 35 28 56 55 21 27 49 53 62 56 18 5 22 13 22 45 0 24 5 39 13 39 27 1
54 37 61 81 l7 46 97 6 c53 4 133 7 176 7 l79 0 -6 116 c-3 64 -10 120 -16
123 -16 11 -17 101 0 112 12 7 151 13 164 7 14 -8 34 43 35 88 0 48 -2 52 -27
57 -15 3 -50 4 -77 2 -88 -5 -94 1 -88 88 l5 76 -137 -2 c-75 -1 -136 1 -136
5 0 5 -6 8 -14 8 -12 0 -13 7 -5 32 11 38 9 109 -3 102 -4 -3 -8 2 -8 11 0 13
-19 15 -140 14 -77 -1 -140 -4 -141 -8 -11 -80 -7 -104 18 -125 32 -25 95 -46
140 -46 36 0 87 -45 78 -68 -3 -8 -5 -18 -5 -22 0 -5 -19 -20 -42 -34 -27 -16
-36 -26 -25 -26 10 0 15 -5 12 -10 -4 -6 -15 -8 -26 -5 -11 4 -19 2 -19 -4 0
-6 8 -11 18 -12 10 0 12 -3 5 -6 -18 -7 -16 -23 1 -23 8 0 16 -10 18 -22 2
-13 8 -22 14 -21 12 2 16 -23 17 -109 0 -43 4 -68 11 -68 6 0 4 -5 -4 -10 -12
-8 -13 -11 -1 -19 7 -5 22 -6 32 -4 17 5 18 7 4 17 -10 8 -16 33 -17 88 -2 42
-6 74 -10 71 -5 -2 -8 1 -8 6 0 19 40 12 40 -6 1 -16 2 -16 16 2 11 14 14 34
11 68 -2 26 0 47 5 47 5 0 7 3 4 8 -12 20 22 37 82 39 l62 2 0 -75 c0 -56 4
-76 15 -80 10 -4 12 -15 8 -36 -5 -25 -3 -29 8 -23 8 5 11 4 6 -1 -5 -5 -14
-9 -20 -10 -7 0 -23 -2 -37 -3 -14 -2 -19 -5 -12 -8 6 -2 12 -13 12 -24 0 -11
-6 -19 -12 -18 -34 4 -43 -3 -45 -31 -2 -27 1 -30 27 -30 21 0 30 -5 30 -16 0
-11 -5 -14 -16 -10 -9 3 -58 6 -110 6 l-94 0 -2 53 c-1 54 -15 -100 -17 -200
l-1 -53 -85 0 -85 0 0 -95 0 -94 -87 -3 -88 -3 -3 -92 -3 -93 -184 0 -185 0 0
95 0 95 -69 0 -69 0 -6 38 c-8 42 6 128 23 145 6 6 40 13 76 15 l66 4 -3 82
-3 81 36 3 36 3 6 80 c3 44 8 84 12 87 4 4 108 8 231 10 l224 3 0 90 0 89
-237 1 c-131 1 -228 4 -215 6 l23 5 -23 22 c-13 12 -37 39 -55 60 -35 42 -34
42 -46 -34 -3 -14 -5 3 -6 38 l-1 62 -260 0 -260 0 -1 43 c-1 23 -3 95 -5 160
l-4 117 101 0 c98 0 100 -1 99 -22 -1 -13 -2 -45 -1 -73 l1 -50 158 -3 158 -3
1 76 1 75 -76 0 c-54 0 -72 -3 -62 -10 11 -7 5 -10 -22 -10 -29 0 -38 4 -39
18 0 10 -3 12 -6 4 -2 -6 -10 -9 -15 -5 -6 3 -32 7 -57 7 l-46 1 -3 77 -3 77
83 3 c146 5 1227 -1 1406 -8z m-1688 -331 c0 -14 -2 -15 -9 -5 -11 18 -21 4
-56 -75 l-28 -63 -134 0 -134 0 5 78 c3 42 5 78 6 80 0 1 79 2 175 2 160 0
175 -1 175 -17z m1283 0 c-13 -2 -35 -2 -50 0 -16 2 -5 4 22 4 28 0 40 -2 28
-4z m954 1 c-3 -3 -12 -4 -19 -1 -8 3 -5 6 6 6 11 1 17 -2 13 -5z m63 -4 c0
-13 -11 -13 -30 0 -12 8 -11 10 8 10 12 0 22 -4 22 -10z m-3 -72 c-3 -8 -6 -5
-6 6 -1 11 2 17 5 13 3 -3 4 -12 1 -19z m-2659 -155 c-3 -69 -5 -78 -23 -81
-68 -10 -65 -5 -65 -97 l0 -85 -40 0 -40 0 0 -85 c0 -99 2 -97 -95 -99 l-64
-1 -3 -85 -3 -85 -173 -3 -173 -2 3 97 3 97 60 3 c33 2 66 6 73 8 9 3 12 45
12 165 l0 160 90 0 90 0 0 85 0 85 175 0 176 0 -3 -77z m922 -63 c0 -5 -4 -10
-10 -10 -5 0 -10 5 -10 10 0 6 5 10 10 10 6 0 10 -4 10 -10z m-1624 -167 l6
-142 -34 -30 c-18 -17 -46 -36 -61 -42 -28 -12 -29 -13 -26 -93 l3 -81 -122 4
-122 3 0 -96 0 -96 -90 0 -90 0 0 100 0 100 90 0 90 0 0 95 0 95 40 0 39 0 3
73 3 72 46 3 c43 3 47 5 53 34 3 17 6 56 6 87 l0 56 80 0 81 -1 5 -141z m1604
63 l0 -84 -35 -6 -34 -7 -3 -76 -3 -77 -42 -20 c-49 -24 -65 -51 -72 -126 -6
-52 -7 -55 -36 -56 -16 0 -44 -2 -62 -2 l-32 -2 6 -90 6 -90 -117 0 -116 0 0
90 0 90 -230 0 -230 0 0 64 c0 89 11 112 59 127 44 13 51 27 51 102 0 29 5 49
13 51 6 2 31 9 55 15 35 10 42 16 42 36 0 18 -5 25 -20 25 -18 0 -20 7 -20 60
l0 60 410 0 410 0 0 -84z m809 63 c-22 -14 -33 -10 -19 6 7 8 17 12 22 9 6 -4
5 -10 -3 -15z m188 -46 c-3 -10 -5 -4 -5 12 0 17 2 24 5 18 2 -7 2 -21 0 -30z
m-194 20 c7 -6 -37 -33 -54 -33 -12 0 24 38 37 39 6 1 14 -2 17 -6z m362 -83
c3 -5 -1 -10 -10 -10 -9 0 -13 5 -10 10 3 6 8 10 10 10 2 0 7 -4 10 -10z m-72
-60 c-3 -11 -9 -20 -14 -20 -14 0 -22 27 -15 46 9 24 35 -1 29 -26z m-108 -97
c-8 -7 -20 -13 -27 -12 -10 0 -10 2 0 6 6 2 9 9 6 15 -4 6 0 14 7 19 19 11 30
-11 14 -28z m-2027 -610 c3 -23 5 -23 166 -23 90 0 251 -3 359 -7 l197 -6 0
-84 0 -83 255 0 255 0 0 -95 0 -95 90 0 90 0 0 -45 c0 -28 5 -45 12 -45 14 0
148 -101 148 -112 0 -4 -358 -8 -795 -8 l-795 0 0 -80 0 -80 -270 0 -270 0 0
85 0 84 -85 -2 -85 -2 0 103 0 102 -57 1 c-243 6 -306 8 -310 13 -3 2 -2 43 2
89 l7 85 37 6 c20 3 57 6 82 6 l46 0 7 49 6 48 58 6 c82 9 90 14 103 61 6 22
13 44 16 49 2 4 167 6 366 5 l362 -3 3 -22z m2745 -53 l4 -25 2 27 c1 25 3 26
61 25 l60 -1 0 -83 0 -83 -77 0 -78 0 3 91 c3 85 14 107 25 49z m-107 -150
l64 0 0 -80 0 -80 88 0 87 0 -3 -142 -3 -143 -30 -31 c-23 -24 -30 -39 -27
-60 3 -28 2 -29 -49 -32 l-53 -3 0 90 0 91 -260 0 -261 0 30 44 c34 49 80 91
111 101 13 4 20 15 20 31 0 18 5 24 23 24 15 0 27 11 37 33 8 17 25 36 38 42
21 9 35 31 29 46 -4 11 35 49 50 49 7 0 13 7 13 16 0 11 5 14 16 10 9 -3 45
-6 80 -6z m-3735 -262 c1 -40 3 -129 5 -197 l4 -124 84 2 c54 1 87 -2 91 -9 4
-7 4 -92 0 -191 l-7 -179 -89 0 -89 0 0 90 0 89 -87 3 -88 3 -5 95 -5 95 -85
2 -85 2 0 93 0 93 93 3 92 3 0 99 0 100 85 0 85 0 1 -72z m4499 -90 c17 -19
32 -23 81 -23 l59 0 0 -101 0 -100 -55 6 c-30 3 -56 8 -58 10 -3 3 -16 24 -31
48 -15 23 -37 47 -49 51 -12 5 -33 21 -46 35 -13 14 -39 29 -58 32 -26 5 -33
11 -33 30 0 21 5 23 58 27 31 2 69 4 84 5 17 1 35 -6 48 -20z m-2180 -333 l0
-95 90 0 90 0 0 -90 0 -90 85 0 85 0 0 -95 0 -94 88 -3 87 -3 3 -97 3 -98
-181 0 -180 0 0 94 0 94 -175 7 -174 7 -3 92 -3 91 -86 3 -86 3 -6 127 c-4 70
-7 153 -7 185 l0 57 185 0 185 0 0 -95z m1820 -265 l0 -230 -80 0 -80 0 0 120
0 120 -60 0 -60 0 0 94 c0 63 4 97 13 104 14 12 66 18 185 20 l82 2 0 -230z
m-3060 75 l0 -135 -270 0 -270 0 0 135 0 135 270 0 270 0 0 -135z m-22 -447
l-3 -203 -77 -3 -78 -3 0 -79 0 -80 -90 0 -90 0 0 -54 c0 -29 -3 -68 -6 -85
l-6 -31 -174 0 -173 0 -3 -92 -3 -93 -65 3 c-111 4 -112 4 -108 -83 l4 -75
-93 0 -93 0 0 -85 0 -85 -90 0 -90 0 0 -82 c0 -46 -5 -90 -10 -98 -6 -10 -10
-11 -10 -2 0 8 -22 12 -75 12 l-75 0 0 -152 c0 -210 6 -198 -96 -198 l-84 0 0
-85 0 -85 85 0 85 0 1 73 c0 39 3 79 7 87 6 13 36 15 182 15 l175 0 -1 -80 0
-80 -92 -3 -92 -3 -1 -67 c-1 -37 -1 -75 0 -84 2 -16 -10 -18 -111 -20 -62 -1
-142 -3 -178 -4 l-65 -2 -3 -86 -3 -86 -197 -2 c-108 -1 -218 0 -244 1 l-48 3
-1 -59 c-1 -32 -2 -71 -3 -88 l-1 -30 -517 0 -518 0 0 168 0 167 90 0 90 0 0
84 0 84 84 7 83 7 7 45 c3 25 6 63 6 84 l0 39 161 2 161 3 2 75 c2 41 4 78 5
83 0 4 39 7 86 7 l85 0 0 90 0 90 85 0 85 0 0 85 0 85 80 0 80 0 0 84 0 84 85
7 85 7 0 79 0 79 85 0 84 0 3 86 3 86 77 0 c43 0 80 3 82 7 2 3 6 39 8 79 l3
72 40 0 c22 0 63 3 91 6 l51 6 0 52 c1 28 1 65 2 83 l1 32 88 3 87 3 3 83 3
82 89 0 90 0 0 75 0 75 85 0 85 0 0 33 c0 19 3 37 7 40 3 4 163 7 355 7 l348
0 -2 -202z m115 101 c-7 -7 -21 -7 -44 -1 l-34 10 45 1 c31 1 41 -2 33 -10z
m47 1 c0 -5 -4 -10 -10 -10 -5 0 -10 5 -10 10 0 6 5 10 10 10 6 0 10 -4 10
-10z m9 -72 c0 -44 -2 -49 -10 -29 -11 27 -9 81 3 81 4 0 8 -24 7 -52z m3199
-77 c23 0 42 -4 42 -8 0 -5 -24 -7 -52 -7 l-53 2 50 -7 50 -6 0 -150 0 -150
-77 -3 -78 -3 0 169 0 169 38 -2 c20 -1 56 -3 80 -4z m-3211 -113 c-2 -13 -4
-3 -4 22 0 25 2 35 4 23 2 -13 2 -33 0 -45z m0 -235 c-2 -16 -4 -3 -4 27 0 30
2 43 4 28 2 -16 2 -40 0 -55z m0 -165 c-2 -13 -4 -3 -4 22 0 25 2 35 4 23 2
-13 2 -33 0 -45z m12 -135 c0 -21 -4 -47 -9 -58 -6 -14 -9 -4 -9 38 -1 32 3
57 9 57 6 0 10 -17 9 -37z m1 -173 c0 -5 -2 -10 -4 -10 -3 0 -8 5 -11 10 -3 6
-1 10 4 10 6 0 11 -4 11 -10z m-1040 -97 l-5 -78 -3 64 c-3 56 1 91 10 91 2 0
1 -35 -2 -77z m398 70 c-10 -2 -28 -2 -40 0 -13 2 -5 4 17 4 22 1 32 -1 23 -4z
m-133 -168 c6 -2 -12 -4 -40 -4 -27 0 -56 3 -63 8 -13 8 79 4 103 -4z m85 5
c0 -5 -17 -9 -37 -9 l-38 2 35 7 c19 4 36 8 38 9 1 0 2 -3 2 -9z m-407 -7
c-23 -2 -64 -2 -90 0 -26 2 -7 3 42 3 50 0 71 -1 48 -3z m520 1 c3 -4 2 -15
-4 -26 -5 -10 -7 -24 -3 -30 5 -7 12 1 20 23 l12 34 1 -53 c1 -72 -11 -92 -54
-92 -28 0 -35 4 -35 19 0 11 5 23 10 26 6 4 8 11 4 16 -3 5 -11 6 -17 2 -7 -4
-6 1 2 11 12 15 13 21 2 38 -11 17 -10 22 1 29 15 10 52 12 61 3z m-647 -341
c-3 -7 -13 -12 -23 -12 -17 1 -17 2 0 6 15 4 17 19 19 106 l2 102 3 -94 c2
-52 2 -100 -1 -108z m-191 30 c5 -19 12 -23 48 -24 35 0 38 -2 19 -9 -27 -11
-67 2 -76 25 -3 9 -5 38 -4 63 1 47 1 47 5 7 2 -22 6 -50 8 -62z m4112 -1255
c-3 -8 -6 -5 -6 6 -1 11 2 17 5 13 3 -3 4 -12 1 -19z m-64 -75 c-7 -2 -19 -2
-25 0 -7 3 -2 5 12 5 14 0 19 -2 13 -5z m-460 -1650 c-13 -2 -33 -2 -45 0 -13
2 -3 4 22 4 25 0 35 -2 23 -4z m217 -92 c0 -44 -4 -81 -10 -83 -5 -1 -39 -1
-75 0 l-65 4 0 79 0 79 75 0 75 0 0 -79z"/>
<path d="M7220 8777 c0 -8 6 -14 14 -14 8 0 12 6 9 14 -3 7 -9 13 -14 13 -5 0
-9 -6 -9 -13z"/>
<path d="M5469 8572 c-5 -13 -9 -39 -9 -59 0 -28 3 -34 16 -29 8 3 12 2 9 -4
-3 -6 1 -10 10 -10 10 0 14 5 9 13 -6 10 -4 10 7 0 7 -7 22 -13 34 -12 20 0
20 0 0 9 -16 7 -13 9 18 9 22 1 37 -4 37 -11 0 -7 3 -8 9 -2 5 5 11 34 15 64
l6 55 -76 0 c-71 1 -77 -1 -85 -23z"/>
<path d="M6561 8554 c0 -11 3 -14 6 -6 3 7 2 16 -1 19 -3 4 -6 -2 -5 -13z"/>
<path d="M6386 8464 c-3 -9 -2 -23 4 -32 7 -14 9 -10 10 16 0 35 -5 41 -14 16z"/>
<path d="M5645 8450 c-3 -5 1 -11 7 -14 10 -5 10 -7 1 -12 -8 -3 -13 -26 -13
-61 l0 -55 70 4 c39 2 71 -1 73 -7 2 -5 7 -4 11 3 4 7 2 12 -3 12 -6 0 -11 7
-11 16 0 8 5 12 10 9 22 -13 23 28 2 46 -28 22 -28 33 -1 26 17 -5 20 -2 16
13 -3 11 0 21 7 23 6 3 -28 5 -77 5 -48 0 -89 -4 -92 -8z m95 -40 c0 -5 -4
-10 -10 -10 -5 0 -10 5 -10 10 0 6 5 10 10 10 6 0 10 -4 10 -10z m-2 -66 c-6
-32 -25 -26 -20 6 3 21 8 28 14 22 6 -6 8 -18 6 -28z"/>
<path d="M6312 8349 c2 -7 10 -15 17 -17 8 -3 12 1 9 9 -2 7 -10 15 -17 17 -8
3 -12 -1 -9 -9z"/>
<path d="M5307 8283 c-10 -3 -14 -9 -10 -16 4 -6 8 -23 9 -37 7 -70 16 -110
25 -110 5 0 9 5 9 10 0 7 45 9 130 6 92 -3 132 -1 137 7 4 7 10 42 13 80 l5
67 -150 -1 c-82 -1 -158 -3 -168 -6z"/>
<path d="M5958 7833 c7 -3 16 -2 19 1 4 3 -2 6 -13 5 -11 0 -14 -3 -6 -6z"/>
<path d="M6065 7790 c-3 -5 -3 -21 1 -35 4 -15 10 -22 13 -16 4 6 19 12 34 13
19 2 27 7 24 18 -2 8 -9 14 -15 13 -7 -2 -12 2 -12 7 0 13 -37 13 -45 0z"/>
<path d="M6623 7775 c-33 -38 -7 -130 56 -197 35 -38 51 -48 77 -48 18 0 34
-6 37 -12 3 -10 9 -10 26 0 11 6 29 12 40 12 12 0 23 9 27 23 6 20 7 21 14 3
6 -18 7 -18 28 5 14 15 20 29 15 39 -4 8 -6 54 -6 101 l2 86 -152 2 c-122 1
-154 -2 -164 -14z"/>
<path d="M6156 7755 c4 -9 11 -14 16 -13 15 5 11 23 -6 26 -11 2 -14 -2 -10
-13z"/>
<path d="M6402 7740 c0 -14 2 -19 5 -12 2 6 2 18 0 25 -3 6 -5 1 -5 -13z"/>
<path d="M6080 7700 c0 -5 6 -10 13 -10 9 0 8 -3 -2 -9 -9 -6 1 -10 33 -12 25
-2 46 -1 46 3 0 5 -7 8 -16 8 -10 0 -14 6 -10 15 4 12 -3 15 -29 15 -19 0 -35
-4 -35 -10z"/>
<path d="M6950 7526 c0 -82 3 -86 70 -86 33 0 61 4 64 9 11 18 -89 131 -116
131 -15 0 -18 -9 -18 -54z"/>
<path d="M6868 7381 c17 -17 32 -38 32 -49 0 -15 18 -30 61 -49 11 -4 3 33
-11 52 -20 27 -85 75 -102 75 -7 0 2 -13 20 -29z"/>
<path d="M6778 7363 c6 -2 18 -2 25 0 6 3 1 5 -13 5 -14 0 -19 -2 -12 -5z"/>
<path d="M6670 7310 c0 -5 5 -10 11 -10 5 0 7 5 4 10 -3 6 -8 10 -11 10 -2 0
-4 -4 -4 -10z"/>
<path d="M6880 7266 c0 -31 6 -34 13 -6 3 11 1 23 -4 26 -5 3 -9 -6 -9 -20z"/>
<path d="M6006 7261 c-4 -7 -5 -15 -2 -18 9 -9 19 4 14 18 -4 11 -6 11 -12 0z"/>
<path d="M6901 7214 c0 -11 3 -14 6 -6 3 7 2 16 -1 19 -3 4 -6 -2 -5 -13z"/>
<path d="M6817 7208 c-3 -9 6 -13 27 -14 17 -1 23 1 14 3 -10 2 -18 9 -18 14
0 13 -17 11 -23 -3z"/>
<path d="M6982 6920 c0 -19 2 -27 5 -17 2 9 2 25 0 35 -3 9 -5 1 -5 -18z"/>
<path d="M7020 6921 c0 -31 15 -50 22 -29 6 18 -3 58 -13 58 -5 0 -9 -13 -9
-29z"/>
<path d="M7071 6904 c0 -11 3 -14 6 -6 3 7 2 16 -1 19 -3 4 -6 -2 -5 -13z"/>
<path d="M6564 6529 c-3 -6 -1 -16 5 -22 8 -8 11 -5 11 11 0 24 -5 28 -16 11z"/>
<path d="M7400 4580 c0 -11 -4 -20 -10 -20 -5 0 -9 -12 -9 -27 1 -23 2 -24 8
-8 3 11 8 -12 12 -55 l5 -75 2 103 c1 56 0 102 -3 102 -3 0 -5 -9 -5 -20z"/>
<path d="M4780 3066 c0 -69 6 -76 58 -76 64 0 71 7 75 74 l3 61 2 -67 2 -67
-45 -7 c-25 -3 -56 -3 -70 0 -15 4 -25 2 -25 -5 0 -7 26 -9 78 -7 l77 3 3 79
c3 70 1 77 -15 74 -13 -2 -20 -16 -24 -48 l-6 -45 -1 48 -2 47 -55 0 -55 0 0
-64z m115 -46 c3 -5 1 -10 -4 -10 -6 0 -11 5 -11 10 0 6 2 10 4 10 3 0 8 -4
11 -10z"/>
<path d="M5358 3048 c-3 -74 -5 -83 -22 -80 -11 2 -15 -1 -11 -7 4 -7 -5 -11
-22 -11 -22 0 -25 -2 -13 -10 8 -5 10 -10 4 -10 -16 0 -24 -23 -17 -49 5 -21
29 -29 35 -11 2 5 29 10 60 12 31 2 55 4 53 6 -2 2 3 22 11 44 16 46 18 136 4
158 -7 10 -10 -8 -10 -59 0 -95 -7 -89 -13 11 -5 73 -4 77 16 81 12 2 1 5 -25
6 l-47 1 -3 -82z m29 50 c-3 -8 -6 -5 -6 6 -1 11 2 17 5 13 3 -3 4 -12 1 -19z
m-2 -145 c-20 -20 -30 -11 -16 15 6 12 11 31 12 44 1 18 3 16 10 -10 8 -26 6
-36 -6 -49z"/>
<path d="M5373 2863 c9 -2 23 -2 30 0 6 3 -1 5 -18 5 -16 0 -22 -2 -12 -5z"/>
<path d="M5318 2843 c23 -2 61 -2 85 0 23 2 4 4 -43 4 -47 0 -66 -2 -42 -4z"/>
<path d="M5275 2820 c3 -5 44 -10 91 -10 49 0 84 4 84 10 0 6 -37 10 -91 10
-57 0 -88 -4 -84 -10z"/>
<path d="M4413 2643 c9 -2 25 -2 35 0 9 3 1 5 -18 5 -19 0 -27 -2 -17 -5z"/>
<path d="M4488 2643 c6 -2 18 -2 25 0 6 3 1 5 -13 5 -14 0 -19 -2 -12 -5z"/>
<path d="M6591 2204 c0 -11 3 -14 6 -6 3 7 2 16 -1 19 -3 4 -6 -2 -5 -13z"/>
<path d="M2590 2070 l0 -90 85 0 85 0 0 -160 0 -160 95 0 95 0 2 93 c2 50 2
122 1 159 l-2 67 92 3 92 3 3 88 3 87 -96 0 -95 0 0 -85 0 -85 -90 0 -90 0 0
85 0 85 -90 0 -90 0 0 -90z"/>
<path d="M6430 2070 l0 -90 90 0 90 0 0 90 0 90 -90 0 -90 0 0 -90z"/>
<path d="M3320 2133 c0 -11 5 -11 20 -3 11 6 20 13 20 15 0 2 -9 3 -20 2 -11
-1 -20 -7 -20 -14z"/>
<path d="M3543 2143 c15 -2 39 -2 55 0 15 2 2 4 -28 4 -30 0 -43 -2 -27 -4z"/>
<path d="M3660 2140 c0 -5 5 -10 10 -10 6 0 10 5 10 10 0 6 -4 10 -10 10 -5 0
-10 -4 -10 -10z"/>
<path d="M3323 2065 c0 -22 2 -30 4 -17 2 12 2 30 0 40 -3 9 -5 -1 -4 -23z"/>
<path d="M3671 2064 c0 -11 3 -14 6 -6 3 7 2 16 -1 19 -3 4 -6 -2 -5 -13z"/>
</g>
</svg>
